<svg xmlns="http://www.w3.org/2000/svg" xmlns:xlink="http://www.w3.org/1999/xlink" style="isolation:isolate" viewBox="0 0 601.86 163.296" width="601.86px" height="163.296px"><path d=" M 432.216 77.747 L 432.216 83.792 L 431.483 83.792 L 431.483 77.747 L 429.483 77.747 L 429.483 77.122 L 434.215 77.122 L 434.215 77.747 L 432.216 77.747 L 432.216 77.747 L 432.216 77.747 L 432.216 77.747 Z  M 350.161 122.51 C 349.428 122.414 348.965 122.414 348.051 122.414 C 347.224 122.414 342.256 122.6 338.4 123.891 C 336.379 124.62 330.496 126.826 330.496 133.354 C 330.496 139.874 336.84 144.568 346.673 144.568 C 355.489 144.568 360.181 140.332 360.181 134.639 C 360.181 129.944 357.148 127.472 350.161 122.51 L 350.161 122.51 L 350.161 122.51 L 350.161 122.51 L 350.161 122.51 L 350.161 122.51 L 350.161 122.51 L 350.161 122.51 L 350.161 122.51 L 350.161 122.51 L 350.161 122.51 L 350.161 122.51 Z  M 536.825 116.868 C 540.967 116.868 544.219 115.734 546.587 113.463 C 548.949 111.192 550.135 108.011 550.135 103.919 L 550.135 99.952 L 543.477 100.231 C 538.187 100.42 534.375 101.24 532.033 102.699 C 529.696 104.155 528.527 106.42 528.527 109.494 C 528.527 111.898 529.253 113.73 530.711 114.983 C 532.168 116.242 534.204 116.868 536.825 116.868 L 536.825 116.868 L 536.825 116.868 L 536.825 116.868 L 536.825 116.868 L 536.825 116.868 L 536.825 116.868 L 536.825 116.868 L 536.825 116.868 L 536.825 116.868 L 536.825 116.868 L 536.825 116.868 L 536.825 116.868 L 536.825 116.868 Z  M 560.651 77.624 L 567.783 77.624 L 577.404 102.679 C 579.515 108.399 580.825 112.526 581.335 115.067 L 581.655 115.067 C 582.003 113.7 582.732 111.371 583.839 108.068 C 584.948 104.767 588.577 94.622 594.721 77.624 L 601.86 77.624 L 582.977 127.651 C 581.107 132.595 578.923 136.103 576.421 138.178 C 573.924 140.247 570.856 141.28 567.224 141.28 C 565.192 141.28 563.188 141.054 561.209 140.6 L 561.209 135.27 C 562.677 135.59 564.323 135.751 566.141 135.751 C 570.711 135.751 573.969 133.187 575.923 128.054 L 578.367 121.802 L 560.651 77.624 L 560.651 77.624 L 560.651 77.624 L 560.651 77.624 L 560.651 77.624 L 560.651 77.624 L 560.651 77.624 L 560.651 77.624 L 560.651 77.624 L 560.651 77.624 L 560.651 77.624 Z  M 352.828 105.047 C 354.939 102.931 355.12 99.994 355.12 98.338 C 355.12 91.723 351.171 81.431 343.545 81.431 C 341.153 81.431 338.584 82.624 337.112 84.466 C 335.552 86.395 335.089 88.872 335.089 91.264 C 335.089 97.42 338.673 107.622 346.58 107.622 C 348.876 107.622 351.352 106.519 352.828 105.047 L 352.828 105.047 L 352.828 105.047 L 352.828 105.047 L 352.828 105.047 L 352.828 105.047 L 352.828 105.047 L 352.828 105.047 L 352.828 105.047 L 352.828 105.047 L 352.828 105.047 Z  M 513.6 121.558 L 506.947 121.558 L 506.947 59.184 L 513.6 59.184 L 513.6 121.558 L 513.6 121.558 L 513.6 121.558 L 513.6 121.558 L 513.6 121.558 L 513.6 121.558 L 513.6 121.558 L 513.6 121.558 L 513.6 121.558 L 513.6 121.558 L 513.6 121.558 L 513.6 121.558 L 513.6 121.558 Z  M 478.991 82.474 C 474.501 82.474 471.256 83.718 469.252 86.202 C 467.248 88.688 466.217 92.643 466.163 98.07 L 466.163 99.551 C 466.163 105.726 467.193 110.142 469.252 112.802 C 471.311 115.46 474.611 116.788 479.152 116.788 C 482.948 116.788 485.923 115.252 488.075 112.18 C 490.224 109.108 491.3 104.871 491.3 99.47 C 491.3 93.994 490.224 89.79 488.075 86.863 C 485.923 83.936 482.893 82.474 478.991 82.474 L 478.991 82.474 L 478.991 82.474 L 478.991 82.474 L 478.991 82.474 L 478.991 82.474 L 478.991 82.474 L 478.991 82.474 L 478.991 82.474 L 478.991 82.474 L 478.991 82.474 L 478.991 82.474 L 478.991 82.474 L 478.991 82.474 L 478.991 82.474 Z  M 310.303 113.608 C 312.508 110.67 313.059 107.002 313.059 103.42 C 313.059 95.346 309.207 79.934 297.828 79.934 C 294.803 79.934 291.775 81.13 289.573 83.059 C 285.995 86.266 285.349 90.303 285.349 94.254 C 285.349 103.33 289.845 118.28 300.949 118.28 C 304.527 118.28 308.197 116.54 310.303 113.608 L 310.303 113.608 L 310.303 113.608 L 310.303 113.608 L 310.303 113.608 L 310.303 113.608 L 310.303 113.608 L 310.303 113.608 L 310.303 113.608 L 310.303 113.608 L 310.303 113.608 Z  M 260.579 113.608 C 262.78 110.67 263.332 107.002 263.332 103.42 C 263.332 95.346 259.477 79.934 248.099 79.934 C 245.075 79.934 242.044 81.13 239.844 83.059 C 236.265 86.266 235.624 90.303 235.624 94.254 C 235.624 103.33 240.117 118.28 251.223 118.28 C 254.801 118.28 258.469 116.54 260.579 113.608 L 260.579 113.608 L 260.579 113.608 L 260.579 113.608 L 260.579 113.608 L 260.579 113.608 L 260.579 113.608 L 260.579 113.608 L 260.579 113.608 Z  M 219.713 119.6 L 206.523 122.644 C 201.171 123.476 196.376 124.208 191.305 124.208 C 165.844 124.208 156.163 105.483 156.163 90.816 C 156.163 72.924 169.904 56.326 193.428 56.326 C 198.411 56.326 203.203 57.062 207.537 58.262 C 214.456 60.199 217.683 62.595 219.713 63.98 L 212.056 71.267 L 208.829 72.002 L 211.135 68.311 C 208 65.27 202.277 59.644 191.397 59.644 C 176.821 59.644 165.844 70.718 165.844 86.859 C 165.844 104.194 178.391 120.522 198.495 120.522 C 204.404 120.522 207.441 119.323 210.211 118.214 L 210.211 103.366 L 196.285 104.103 L 203.66 100.134 L 223.216 100.134 L 220.82 102.438 C 220.171 102.994 220.081 103.18 219.896 103.912 C 219.8 104.744 219.713 107.42 219.713 108.343 L 219.713 119.6 L 219.713 119.6 L 219.713 119.6 L 219.713 119.6 L 219.713 119.6 L 219.713 119.6 L 219.713 119.6 Z  M 414.767 90.491 C 416.504 89.852 417.421 89.302 417.421 88.02 C 417.421 84.359 413.301 80.142 408.351 80.142 C 404.683 80.142 397.817 82.983 397.817 92.874 C 397.817 94.431 398 96.08 398.096 97.734 L 414.767 90.491 L 414.767 90.491 L 414.767 90.491 L 414.767 90.491 L 414.767 90.491 L 414.767 90.491 Z  M 385.841 116.944 C 382.796 116.667 382.159 116.116 382.159 112.515 L 382.159 111.499 L 382.159 60.308 C 382.177 60.11 382.191 59.907 382.209 59.714 C 382.581 56.487 383.501 55.934 386.365 54.271 L 373.169 54.271 L 366.249 57.592 L 373.301 57.592 L 373.301 57.635 L 373.296 57.6 L 373.296 111.499 L 373.296 114.546 C 373.296 116.387 372.932 116.667 370.808 119.431 L 387.136 119.431 L 390.548 117.408 C 388.983 117.218 387.412 117.128 385.841 116.944 L 385.841 116.944 L 385.841 116.944 L 385.841 116.944 L 385.841 116.944 L 385.841 116.944 Z  M 440.456 83.792 L 440.456 77.692 L 440.423 77.692 L 438.56 83.792 L 437.987 83.792 L 436.108 77.692 L 436.085 77.692 L 436.085 83.792 L 435.419 83.792 L 435.419 77.122 L 436.561 77.122 L 438.261 82.514 L 438.284 82.514 L 439.957 77.122 L 441.116 77.122 L 441.116 83.792 L 440.456 83.792 L 440.456 83.792 L 440.456 83.792 Z  M 5.338 163.296 L 67.663 128.965 L 94.566 113.434 L 75.745 95.239 L 5.338 163.296 L 5.338 163.296 L 5.338 163.296 L 5.338 163.296 Z  M 96.423 68.373 L 67.555 51.708 L 4.288 19.287 L 75.745 88.364 L 96.423 68.373 L 96.423 68.373 L 96.423 68.373 L 96.423 68.373 L 96.423 68.373 Z  M 127.108 86.083 L 100.875 70.946 L 79.3 91.801 L 99.018 110.862 L 127.108 94.649 C 128.655 93.757 129.58 92.155 129.58 90.367 C 129.58 88.58 128.656 86.978 127.108 86.083 L 127.108 86.083 L 127.108 86.083 L 127.108 86.083 L 127.108 86.083 Z  M 0.067 22.083 L 0 161.583 L 72.189 91.8 L 0.067 22.083 L 0.067 22.083 L 0.067 22.083 Z  M 479.953 122.359 C 477.093 122.359 474.481 121.832 472.117 120.778 C 469.753 119.722 467.767 118.098 466.163 115.908 L 465.683 115.908 C 466.003 118.472 466.163 120.906 466.163 123.202 L 466.163 141.28 L 459.512 141.28 L 459.512 77.624 L 464.923 77.624 L 465.843 83.636 L 466.163 83.636 C 467.876 81.231 469.868 79.495 472.139 78.426 C 474.409 77.358 477.016 76.822 479.953 76.822 C 485.78 76.822 490.277 78.814 493.443 82.796 C 496.609 86.778 498.195 92.363 498.195 99.551 C 498.195 106.767 496.584 112.371 493.367 116.37 C 490.144 120.363 485.675 122.359 479.953 122.359 L 479.953 122.359 L 479.953 122.359 L 479.953 122.359 L 479.953 122.359 L 479.953 122.359 L 479.953 122.359 L 479.953 122.359 L 479.953 122.359 L 479.953 122.359 L 479.953 122.359 L 479.953 122.359 L 479.953 122.359 L 479.953 122.359 Z  M 423.375 117.792 C 422.371 118.343 421.363 118.987 420.359 119.442 C 417.329 120.815 414.216 121.183 411.464 121.183 C 408.54 121.183 403.956 120.994 399.28 117.608 C 392.781 113.026 389.941 105.147 389.941 98.279 C 389.941 84.082 401.484 77.122 410.919 77.122 C 414.216 77.122 417.609 77.944 420.359 79.688 C 424.933 82.704 426.125 86.643 426.763 88.751 L 405.241 97.458 L 398.187 98.007 C 400.473 109.639 408.351 116.414 417.056 116.414 C 421.727 116.414 425.117 114.767 428.231 113.212 L 423.375 117.792 L 423.375 117.792 L 423.375 117.792 L 423.375 117.792 L 423.375 117.792 L 423.375 117.792 Z  M 249.109 121.038 C 234.521 121.038 226.723 109.66 226.723 99.383 C 226.723 87.363 236.541 77.092 250.487 77.092 C 263.972 77.092 272.412 87.639 272.412 98.744 C 272.412 109.566 264.065 121.038 249.109 121.038 L 249.109 121.038 L 249.109 121.038 L 249.109 121.038 L 249.109 121.038 L 249.109 121.038 L 249.109 121.038 L 249.109 121.038 L 249.109 121.038 Z  M 551.857 121.558 L 550.533 115.303 L 550.212 115.303 C 548.021 118.059 545.836 119.923 543.657 120.896 C 541.481 121.874 538.761 122.359 535.501 122.359 C 531.147 122.359 527.732 121.238 525.26 118.992 C 522.787 116.747 521.551 113.556 521.551 109.414 C 521.551 100.542 528.648 95.892 542.836 95.463 L 550.295 95.222 L 550.295 92.496 C 550.295 89.048 549.552 86.502 548.068 84.86 C 546.587 83.215 544.211 82.395 540.953 82.395 C 537.291 82.395 533.148 83.518 528.527 85.762 L 526.481 80.671 C 528.648 79.495 531.017 78.574 533.599 77.906 C 536.176 77.238 538.761 76.903 541.355 76.903 C 546.592 76.903 550.473 78.064 553 80.39 C 555.524 82.715 556.787 86.443 556.787 91.575 L 556.787 121.558 L 551.857 121.558 L 551.857 121.558 L 551.857 121.558 L 551.857 121.558 L 551.857 121.558 L 551.857 121.558 L 551.857 121.558 L 551.857 121.558 L 551.857 121.558 L 551.857 121.558 L 551.857 121.558 L 551.857 121.558 L 551.857 121.558 Z  M 298.836 121.038 C 284.251 121.038 276.452 109.66 276.452 99.383 C 276.452 87.363 286.267 77.092 300.217 77.092 C 313.699 77.092 322.14 87.639 322.14 98.744 C 322.14 109.566 313.795 121.038 298.836 121.038 L 298.836 121.038 L 298.836 121.038 L 298.836 121.038 L 298.836 121.038 L 298.836 121.038 L 298.836 121.038 L 298.836 121.038 L 298.836 121.038 L 298.836 121.038 Z  M 356.688 81.706 C 358.8 83.454 363.209 87.127 363.209 94.114 C 363.209 100.91 359.351 104.132 355.489 107.16 C 354.295 108.354 352.917 109.644 352.917 111.668 C 352.917 113.686 354.295 114.79 355.309 115.618 L 358.619 118.186 C 362.661 121.586 366.333 124.712 366.333 131.056 C 366.333 139.692 357.971 148.42 342.168 148.42 C 328.841 148.42 322.412 142.082 322.412 135.278 C 322.412 131.97 324.059 127.287 329.487 124.067 C 335.18 120.575 342.905 120.12 347.039 119.838 C 345.748 118.186 344.28 116.439 344.28 113.595 C 344.28 112.035 344.741 111.115 345.2 110.007 C 344.185 110.1 343.176 110.192 342.256 110.192 C 332.519 110.192 327.004 102.931 327.004 95.767 C 327.004 91.539 328.936 86.851 332.883 83.454 C 338.123 79.135 344.372 78.398 349.337 78.398 L 368.264 78.398 L 362.381 81.706 L 356.688 81.706 L 356.688 81.706 L 356.688 81.706 L 356.688 81.706 L 356.688 81.706 L 356.688 81.706 L 356.688 81.706 L 356.688 81.706 L 356.688 81.706 L 356.688 81.706 L 356.688 81.706 Z  M 343.629 11.484 L 343.629 11.484 L 343.629 11.484 Q 341.422 11.484 340.406 12.842 L 340.406 12.842 L 340.406 12.842 Q 339.391 14.199 339.352 17.324 L 339.352 17.324 L 339.352 17.969 L 339.352 17.969 Q 339.352 21.484 340.396 23.008 L 340.396 23.008 L 340.396 23.008 Q 341.441 24.531 343.707 24.531 L 343.707 24.531 L 343.707 24.531 Q 347.711 24.531 347.711 17.93 L 347.711 17.93 L 347.711 17.93 Q 347.711 14.707 346.725 13.096 L 346.725 13.096 L 346.725 13.096 Q 345.738 11.484 343.629 11.484 L 343.629 11.484 Z  M 463.438 10.957 L 463.438 10.957 L 463.438 10.957 Q 461.543 10.957 460.469 12.158 L 460.469 12.158 L 460.469 12.158 Q 459.395 13.359 459.238 15.566 L 459.238 15.566 L 467.598 15.566 L 467.598 15.566 Q 467.559 13.359 466.445 12.158 L 466.445 12.158 L 466.445 12.158 Q 465.332 10.957 463.438 10.957 L 463.438 10.957 Z  M 284.59 7.09 L 284.59 7.09 L 284.59 7.09 Q 284.59 9.844 282.637 11.641 L 282.637 11.641 L 282.637 11.641 Q 280.684 13.438 277.344 13.926 L 277.344 13.926 L 277.344 14.043 L 277.344 14.043 Q 281.27 14.434 283.369 16.211 L 283.369 16.211 L 283.369 16.211 Q 285.469 17.988 285.469 20.84 L 285.469 20.84 L 285.469 20.84 Q 285.469 24.785 282.275 27.07 L 282.275 27.07 L 282.275 27.07 Q 279.082 29.355 273.438 29.355 L 273.438 29.355 L 273.438 29.355 Q 267.148 29.355 263.34 27.812 L 263.34 27.812 L 263.34 22.734 L 263.34 22.734 Q 265.176 23.613 267.646 24.111 L 267.646 24.111 L 267.646 24.111 Q 270.117 24.609 272.266 24.609 L 272.266 24.609 L 272.266 24.609 Q 279.473 24.609 279.473 20.41 L 279.473 20.41 L 279.473 20.41 Q 279.473 18.516 277.158 17.5 L 277.158 17.5 L 277.158 17.5 Q 274.844 16.484 270.313 16.484 L 270.313 16.484 L 267.637 16.484 L 267.637 11.758 L 270.039 11.758 L 270.039 11.758 Q 274.57 11.758 276.641 10.898 L 276.641 10.898 L 276.641 10.898 Q 278.711 10.039 278.711 8.047 L 278.711 8.047 L 278.711 8.047 Q 278.711 6.582 277.412 5.713 L 277.412 5.713 L 277.412 5.713 Q 276.113 4.844 273.516 4.844 L 273.516 4.844 L 273.516 4.844 Q 269.492 4.844 265.742 7.168 L 265.742 7.168 L 263.105 3.125 L 263.105 3.125 Q 265.547 1.504 268.281 0.752 L 268.281 0.752 L 268.281 0.752 Q 271.016 0 274.355 0 L 274.355 0 L 274.355 0 Q 279.023 0 281.807 1.953 L 281.807 1.953 L 281.807 1.953 Q 284.59 3.906 284.59 7.09 L 284.59 7.09 Z  M 302.504 20.645 L 302.504 18.848 L 300.199 18.926 L 300.199 18.926 Q 297.602 19.004 296.332 19.863 L 296.332 19.863 L 296.332 19.863 Q 295.063 20.723 295.063 22.48 L 295.063 22.48 L 295.063 22.48 Q 295.063 25 297.953 25 L 297.953 25 L 297.953 25 Q 300.023 25 301.264 23.809 L 301.264 23.809 L 301.264 23.809 Q 302.504 22.617 302.504 20.645 L 302.504 20.645 L 302.504 20.645 Z  M 314.395 7.129 L 329.473 7.129 L 329.473 11.602 L 320.352 11.602 L 320.352 28.965 L 314.395 28.965 L 314.395 7.129 L 314.395 7.129 Z  M 503.453 22.129 L 503.453 22.129 L 503.453 22.129 Q 503.453 20.84 502.457 20.264 L 502.457 20.264 L 502.457 20.264 Q 501.461 19.688 499.469 19.688 L 499.469 19.688 L 494.742 19.688 L 494.742 24.844 L 499.586 24.844 L 499.586 24.844 Q 501.48 24.844 502.467 24.131 L 502.467 24.131 L 502.467 24.131 Q 503.453 23.418 503.453 22.129 L 503.453 22.129 Z  M 502.906 13.32 L 502.906 13.32 L 502.906 13.32 Q 502.906 11.328 499.742 11.328 L 499.742 11.328 L 494.742 11.328 L 494.742 15.645 L 499.059 15.645 L 499.059 15.645 Q 500.953 15.645 501.93 15.098 L 501.93 15.098 L 501.93 15.098 Q 502.906 14.551 502.906 13.32 L 502.906 13.32 Z  M 363.941 28.809 L 355.27 7.129 L 361.793 7.129 L 365.914 19.414 L 365.914 19.414 Q 366.441 21.016 366.637 23.203 L 366.637 23.203 L 366.754 23.203 L 366.754 23.203 Q 366.969 21.191 367.594 19.414 L 367.594 19.414 L 371.637 7.129 L 378.023 7.129 L 368.785 31.758 L 368.785 31.758 Q 367.516 35.176 365.162 36.875 L 365.162 36.875 L 365.162 36.875 Q 362.809 38.574 359.664 38.574 L 359.664 38.574 L 359.664 38.574 Q 358.121 38.574 356.637 38.242 L 356.637 38.242 L 356.637 33.516 L 356.637 33.516 Q 357.711 33.77 358.98 33.77 L 358.98 33.77 L 358.98 33.77 Q 360.563 33.77 361.744 32.803 L 361.744 32.803 L 361.744 32.803 Q 362.926 31.836 363.59 29.883 L 363.59 29.883 L 363.941 28.809 L 363.941 28.809 Z  M 384.637 15.527 L 386.824 15.527 L 386.824 15.527 Q 390.203 15.527 391.619 14.98 L 391.619 14.98 L 391.619 14.98 Q 393.035 14.434 393.035 13.242 L 393.035 13.242 L 393.035 13.242 Q 393.035 12.188 392 11.66 L 392 11.66 L 392 11.66 Q 390.965 11.133 388.582 11.133 L 388.582 11.133 L 388.582 11.133 Q 387.078 11.133 385.174 11.504 L 385.174 11.504 L 385.174 11.504 Q 383.27 11.875 381.707 12.52 L 381.707 12.52 L 379.949 8.359 L 379.949 8.359 Q 382.273 7.48 384.461 7.1 L 384.461 7.1 L 384.461 7.1 Q 386.648 6.719 389.344 6.719 L 389.344 6.719 L 389.344 6.719 Q 393.426 6.719 395.887 8.281 L 395.887 8.281 L 395.887 8.281 Q 398.348 9.844 398.348 12.52 L 398.348 12.52 L 398.348 12.52 Q 398.348 16.211 393.992 17.324 L 393.992 17.324 L 393.992 17.52 L 393.992 17.52 Q 396.668 18.184 397.811 19.404 L 397.811 19.404 L 397.811 19.404 Q 398.953 20.625 398.953 22.598 L 398.953 22.598 L 398.953 22.598 Q 398.953 24.59 397.664 26.133 L 397.664 26.133 L 397.664 26.133 Q 396.375 27.676 393.934 28.516 L 393.934 28.516 L 393.934 28.516 Q 391.492 29.355 388.191 29.355 L 388.191 29.355 L 388.191 29.355 Q 382.723 29.355 379.793 28.008 L 379.793 28.008 L 379.793 23.086 L 379.793 23.086 Q 381.473 23.867 383.475 24.316 L 383.475 24.316 L 383.475 24.316 Q 385.477 24.766 387.352 24.766 L 387.352 24.766 L 387.352 24.766 Q 390.262 24.766 391.707 24.111 L 391.707 24.111 L 391.707 24.111 Q 393.152 23.457 393.152 22.246 L 393.152 22.246 L 393.152 22.246 Q 393.152 20.918 391.629 20.283 L 391.629 20.283 L 391.629 20.283 Q 390.105 19.648 386.941 19.648 L 386.941 19.648 L 384.637 19.648 L 384.637 15.527 L 384.637 15.527 Z  M 403.395 7.129 L 409.156 7.129 L 409.156 15.762 L 409.156 15.762 Q 409.156 17.129 408.707 22.441 L 408.707 22.441 L 418.785 7.129 L 425.953 7.129 L 425.953 28.965 L 420.191 28.965 L 420.191 20.254 L 420.191 20.254 Q 420.191 17.93 420.582 13.691 L 420.582 13.691 L 410.543 28.965 L 403.395 28.965 L 403.395 7.129 L 403.395 7.129 Z  M 430.188 7.129 L 450.461 7.129 L 450.461 11.602 L 443.313 11.602 L 443.313 28.965 L 437.355 28.965 L 437.355 11.602 L 430.188 11.602 L 430.188 7.129 L 430.188 7.129 Z  M 345.387 29.355 L 345.387 29.355 L 345.387 29.355 Q 341.539 29.355 339.352 26.562 L 339.352 26.562 L 339.039 26.562 L 339.039 26.562 Q 339.352 29.297 339.352 29.727 L 339.352 29.727 L 339.352 38.574 L 333.395 38.574 L 333.395 7.129 L 338.238 7.129 L 339.078 9.961 L 339.352 9.961 L 339.352 9.961 Q 341.441 6.719 345.543 6.719 L 345.543 6.719 L 345.543 6.719 Q 349.41 6.719 351.598 9.707 L 351.598 9.707 L 351.598 9.707 Q 353.785 12.695 353.785 18.008 L 353.785 18.008 L 353.785 18.008 Q 353.785 21.504 352.76 24.082 L 352.76 24.082 L 352.76 24.082 Q 351.734 26.66 349.84 28.008 L 349.84 28.008 L 349.84 28.008 Q 347.945 29.355 345.387 29.355 L 345.387 29.355 Z  M 308.422 28.965 L 304.262 28.965 L 303.109 25.996 L 302.953 25.996 L 302.953 25.996 Q 301.449 27.891 299.857 28.623 L 299.857 28.623 L 299.857 28.623 Q 298.266 29.355 295.707 29.355 L 295.707 29.355 L 295.707 29.355 Q 292.563 29.355 290.756 27.559 L 290.756 27.559 L 290.756 27.559 Q 288.949 25.762 288.949 22.441 L 288.949 22.441 L 288.949 22.441 Q 288.949 18.965 291.381 17.314 L 291.381 17.314 L 291.381 17.314 Q 293.813 15.664 298.715 15.488 L 298.715 15.488 L 302.504 15.371 L 302.504 14.414 L 302.504 14.414 Q 302.504 11.094 299.105 11.094 L 299.105 11.094 L 299.105 11.094 Q 296.488 11.094 292.953 12.676 L 292.953 12.676 L 290.98 8.652 L 290.98 8.652 Q 294.75 6.68 299.34 6.68 L 299.34 6.68 L 299.34 6.68 Q 303.734 6.68 306.078 8.594 L 306.078 8.594 L 306.078 8.594 Q 308.422 10.508 308.422 14.414 L 308.422 14.414 L 308.422 28.965 L 308.422 28.965 Z  M 464.277 29.355 L 464.277 29.355 L 464.277 29.355 Q 459.004 29.355 456.035 26.445 L 456.035 26.445 L 456.035 26.445 Q 453.066 23.535 453.066 18.203 L 453.066 18.203 L 453.066 18.203 Q 453.066 12.715 455.811 9.717 L 455.811 9.717 L 455.811 9.717 Q 458.555 6.719 463.398 6.719 L 463.398 6.719 L 463.398 6.719 Q 468.027 6.719 470.605 9.355 L 470.605 9.355 L 470.605 9.355 Q 473.184 11.992 473.184 16.641 L 473.184 16.641 L 473.184 19.531 L 459.102 19.531 L 459.102 19.531 Q 459.199 22.07 460.605 23.496 L 460.605 23.496 L 460.605 23.496 Q 462.012 24.922 464.551 24.922 L 464.551 24.922 L 464.551 24.922 Q 466.523 24.922 468.281 24.512 L 468.281 24.512 L 468.281 24.512 Q 470.039 24.102 471.953 23.203 L 471.953 23.203 L 471.953 27.812 L 471.953 27.812 Q 470.391 28.594 468.613 28.975 L 468.613 28.975 L 468.613 28.975 Q 466.836 29.355 464.277 29.355 L 464.277 29.355 Z  M 508.941 12.852 L 508.941 12.852 L 508.941 12.852 Q 508.941 14.609 507.838 15.85 L 507.838 15.85 L 507.838 15.85 Q 506.734 17.09 504.586 17.441 L 504.586 17.441 L 504.586 17.598 L 504.586 17.598 Q 506.91 17.871 508.268 19.189 L 508.268 19.189 L 508.268 19.189 Q 509.625 20.508 509.625 22.441 L 509.625 22.441 L 509.625 22.441 Q 509.625 25.625 507.125 27.295 L 507.125 27.295 L 507.125 27.295 Q 504.625 28.965 499.977 28.965 L 499.977 28.965 L 488.785 28.965 L 488.785 7.129 L 499.977 7.129 L 499.977 7.129 Q 504.469 7.129 506.705 8.584 L 506.705 8.584 L 506.705 8.584 Q 508.941 10.039 508.941 12.852 L 508.941 12.852 Z " fill-rule="evenodd"/></svg>
