<svg xmlns="http://www.w3.org/2000/svg" xmlns:xlink="http://www.w3.org/1999/xlink" style="isolation:isolate" viewBox="0 0 487.222 465.2" width="487.222px" height="465.2px"><path d=" M 486.554 175.8 C 484.954 170.9 480.754 167.4 475.654 166.6 L 323.654 145 L 255.254 7.5 C 252.954 2.9 248.254 0 243.154 0 L 243.154 0 C 238.054 0 233.354 2.9 231.054 7.6 L 163.554 145.5 L 11.554 168.1 C 6.454 168.9 2.254 172.4 0.654 177.3 C -0.946 182.2 0.454 187.6 4.154 191.1 L 114.454 298 L 88.954 449.4 C 88.054 454.5 90.154 459.6 94.354 462.6 C 96.654 464.3 99.454 465.2 102.254 465.2 C 104.454 465.2 106.554 464.7 108.554 463.6 L 244.254 391.7 L 380.354 462.8 C 382.354 463.8 384.454 464.3 386.554 464.3 L 386.554 464.3 C 393.954 464.3 400.054 458.2 400.054 450.8 C 400.054 449.7 399.954 448.7 399.654 447.7 L 373.354 297.2 L 482.954 189.7 C 486.854 186.1 488.154 180.7 486.554 175.8 Z "/></svg>
