<?xml version="1.0" standalone="no"?><!-- Generator: Gravit.io --><svg xmlns="http://www.w3.org/2000/svg" xmlns:xlink="http://www.w3.org/1999/xlink" style="isolation:isolate" viewBox="0 0 334.877 334.877" width="334.877" height="334.877"><path d=" M 333.196 155.999 L 317.129 155.999 L 317.129 82.09 C 317.129 64.371 302.714 49.956 284.995 49.956 L 263.234 49.956 L 240.965 9.917 C 237.571 3.798 231.112 0 224.107 0 C 220.842 0 217.603 0.842 214.743 2.429 L 129.279 49.955 L 33.815 49.955 C 16.096 49.955 1.681 64.37 1.681 82.089 L 1.681 302.742 C 1.681 320.461 16.096 334.876 33.815 334.876 L 284.995 334.876 C 302.714 334.876 317.129 320.461 317.129 302.742 L 317.129 237.94 L 333.196 237.94 L 333.196 155.999 L 333.196 155.999 Z  M 284.995 62.809 C 294.892 62.809 302.977 70.328 304.063 79.949 L 279.911 79.949 L 270.386 62.809 L 284.995 62.809 L 284.995 62.809 Z  M 220.996 13.663 C 224.01 11.973 228.066 13.155 229.73 16.157 L 265.206 79.943 L 101.798 79.943 L 220.996 13.663 L 220.996 13.663 Z  M 304.275 302.742 C 304.275 313.372 295.624 322.023 284.994 322.023 L 33.815 322.023 C 23.185 322.023 14.534 313.372 14.534 302.742 L 14.534 82.09 C 14.534 71.46 23.185 62.809 33.815 62.809 L 106.168 62.809 L 75.345 79.95 L 37.832 79.95 C 34.278 79.95 31.405 82.829 31.405 86.377 C 31.405 89.925 34.278 92.804 37.832 92.804 L 52.228 92.804 L 287.058 92.804 L 304.275 92.804 L 304.275 156.005 L 257.276 156.005 C 235.45 156.005 217.687 173.769 217.687 195.594 L 217.687 198.358 C 217.687 220.184 235.451 237.947 257.276 237.947 L 304.275 237.947 L 304.275 302.742 L 304.275 302.742 Z  M 320.342 225.087 L 317.129 225.087 L 257.276 225.087 C 242.533 225.087 230.54 213.095 230.54 198.351 L 230.54 195.587 C 230.54 180.844 242.532 168.851 257.276 168.851 L 317.129 168.851 L 320.342 168.851 L 320.342 225.087 L 320.342 225.087 Z  M 276.961 197.497 C 276.961 205.338 270.611 211.687 262.771 211.687 C 254.93 211.687 248.581 205.337 248.581 197.497 C 248.581 189.657 254.931 183.307 262.771 183.307 C 270.612 183.306 276.961 189.662 276.961 197.497 Z "/></svg>
