<?xml version="1.0" standalone="no"?><!-- Generator: Gravit.io --><svg xmlns="http://www.w3.org/2000/svg" xmlns:xlink="http://www.w3.org/1999/xlink" style="isolation:isolate" viewBox="0 0 376.404 512" width="376.404" height="512"><path d=" M 241.713 34.549 L 341.856 134.69 L 263.274 134.69 C 251.385 134.69 241.714 125.018 241.714 113.128 L 241.714 34.549 L 241.713 34.549 L 241.713 34.549 L 241.713 34.549 L 241.713 34.549 L 241.713 34.549 Z  M 269.151 257.012 L 107.253 257.012 C 101.665 257.012 97.134 261.543 97.134 267.131 C 97.134 272.719 101.665 277.25 107.253 277.25 L 269.151 277.25 C 274.741 277.25 279.27 272.719 279.27 267.131 C 279.27 261.543 274.741 257.012 269.151 257.012 L 269.151 257.012 L 269.151 257.012 L 269.151 257.012 Z  M 269.151 302.208 L 107.253 302.208 C 101.665 302.208 97.134 306.739 97.134 312.327 C 97.134 317.915 101.665 322.446 107.253 322.446 L 269.151 322.446 C 274.741 322.446 279.27 317.915 279.27 312.327 C 279.27 306.739 274.741 302.208 269.151 302.208 L 269.151 302.208 L 269.151 302.208 Z  M 269.151 347.404 L 107.253 347.404 C 101.665 347.404 97.134 351.935 97.134 357.523 C 97.134 363.111 101.665 367.642 107.253 367.642 L 269.151 367.642 C 274.741 367.642 279.27 363.111 279.27 357.523 C 279.27 351.935 274.741 347.404 269.151 347.404 L 269.151 347.404 Z  M 356.166 470.2 C 356.166 482.089 346.494 491.762 334.604 491.762 L 41.8 491.762 C 29.911 491.762 20.238 482.089 20.238 470.2 L 20.238 41.8 C 20.238 29.911 29.911 20.238 41.8 20.238 L 221.474 20.238 L 221.474 113.13 C 221.474 136.179 240.224 154.93 263.273 154.93 L 356.166 154.93 L 356.166 470.2 L 356.166 470.2 L 356.166 470.2 L 356.166 470.2 L 356.166 470.2 L 356.166 470.2 Z  M 373.441 137.656 L 238.749 2.964 C 236.851 1.066 234.278 0 231.593 0 L 41.8 0 C 18.751 0 0 18.751 0 41.8 L 0 470.2 C 0 493.249 18.751 512 41.8 512 L 334.604 512 C 357.653 512 376.404 493.249 376.404 470.2 L 376.404 144.811 C 376.404 142.128 375.338 139.553 373.441 137.656 L 373.441 137.656 L 373.441 137.656 L 373.441 137.656 L 373.441 137.656 Z  M 216.534 392.601 L 107.253 392.601 C 101.665 392.601 97.134 397.132 97.134 402.72 C 97.134 408.308 101.665 412.839 107.253 412.839 L 216.534 412.839 C 222.124 412.839 226.653 408.308 226.653 402.72 C 226.653 397.132 222.124 392.601 216.534 392.601 Z " fill-rule="evenodd"/></svg>
