<svg xmlns="http://www.w3.org/2000/svg" xmlns:xlink="http://www.w3.org/1999/xlink" style="isolation:isolate" viewBox="0 0 600.088 156.796" width="600.088px" height="156.796px"><path d=" M 486.403 85.625 C 497.02 85.625 501.853 95.975 501.853 105.596 C 501.853 117.426 495.257 126.014 486.179 126.014 L 486.064 126.014 C 477.115 126.014 470.616 117.571 470.616 105.937 C 470.616 95.828 475.5 85.625 486.403 85.625 L 486.403 85.625 L 486.403 85.625 L 486.403 85.625 L 486.403 85.625 L 486.403 85.625 Z  M 89.3 25.456 C 94.44 18.855 98.349 9.528 96.932 0 C 88.532 0.579 78.701 5.924 72.961 12.893 C 67.753 19.221 63.453 28.605 65.128 37.724 C 74.3 38.008 83.789 32.529 89.3 25.456 L 89.3 25.456 L 89.3 25.456 L 89.3 25.456 L 89.3 25.456 L 89.3 25.456 L 89.3 25.456 L 89.3 25.456 L 89.3 25.456 L 89.3 25.456 Z  M 197.381 68.912 C 198.276 72.393 199.241 76.009 200.483 79.916 L 207.624 100.599 L 187.299 100.599 L 194.34 79.781 C 195.413 76.407 196.432 72.76 197.381 68.912 L 197.381 68.912 L 197.381 68.912 L 197.381 68.912 L 197.381 68.912 L 197.381 68.912 L 197.381 68.912 L 197.381 68.912 L 197.381 68.912 L 197.381 68.912 Z  M 262.257 86.078 C 272.779 86.078 277.487 95.824 277.487 105.481 C 277.487 117.937 271.479 125.676 261.809 125.676 C 255.208 125.676 249.497 121.183 247.905 114.724 C 247.632 113.724 247.487 112.399 247.487 110.904 L 247.487 101.413 C 247.487 100.553 247.679 99.511 247.861 98.5 C 247.92 98.177 247.984 97.854 248.031 97.541 C 249.791 90.789 255.633 86.078 262.257 86.078 L 262.257 86.078 L 262.257 86.078 L 262.257 86.078 L 262.257 86.078 L 262.257 86.078 L 262.257 86.078 L 262.257 86.078 L 262.257 86.078 L 262.257 86.078 Z  M 323.033 86.078 C 333.549 86.078 338.259 95.824 338.259 105.481 C 338.259 117.937 332.247 125.676 322.583 125.676 C 315.984 125.676 310.268 121.183 308.679 114.724 C 308.405 113.724 308.263 112.399 308.263 110.904 L 308.263 101.413 C 308.263 100.548 308.452 99.501 308.639 98.489 C 308.697 98.172 308.756 97.854 308.809 97.541 C 310.563 90.789 316.408 86.078 323.033 86.078 L 323.033 86.078 L 323.033 86.078 L 323.033 86.078 L 323.033 86.078 L 323.033 86.078 L 323.033 86.078 L 323.033 86.078 Z  M 402.108 89.138 C 391.093 84.872 387.564 81.519 387.564 75.32 C 387.564 70.101 391.711 64.838 400.979 64.838 C 408.624 64.838 413.515 67.497 414.833 68.316 L 415.833 68.933 L 419.164 59.084 L 418.505 58.699 C 416.528 57.54 410.893 54.844 401.319 54.844 C 386.268 54.844 375.756 63.729 375.756 76.447 C 375.756 86.702 382.339 93.872 396.471 99.011 C 406.487 102.753 410.215 106.588 410.215 113.162 C 410.215 120.604 404.463 125.221 395.213 125.221 C 389.188 125.221 382.988 123.465 378.203 120.399 L 377.179 119.743 L 374.011 129.819 L 374.593 130.204 C 379.049 133.18 387.435 135.332 394.539 135.332 C 414.823 135.332 422.015 122.964 422.015 112.372 C 422.015 101.453 416.249 94.719 402.108 89.138 L 402.108 89.138 L 402.108 89.138 L 402.108 89.138 L 402.108 89.138 L 402.108 89.138 Z  M 134.735 115.031 C 131.052 123.193 129.289 126.836 124.549 134.049 C 117.932 144.123 108.609 156.664 97.057 156.769 C 86.789 156.864 84.154 150.087 70.221 150.164 C 56.29 150.24 53.38 156.888 43.111 156.795 C 31.558 156.688 22.723 145.361 16.107 135.292 C -2.393 107.131 -4.326 74.081 7.082 56.512 C 15.191 44.025 27.979 36.716 40.008 36.716 C 52.253 36.716 59.951 43.432 70.076 43.432 C 79.896 43.432 85.883 36.705 100.039 36.705 C 110.74 36.705 122.079 42.531 130.159 52.609 C 103.688 67.114 107.987 104.924 134.735 115.031 L 134.735 115.031 L 134.735 115.031 L 134.735 115.031 L 134.735 115.031 L 134.735 115.031 L 134.735 115.031 L 134.735 115.031 L 134.735 115.031 L 134.735 115.031 Z  M 443.26 64.111 L 431.684 67.745 L 431.684 77.549 L 423.211 77.549 L 423.211 86.981 L 431.684 86.981 L 431.684 115.875 C 431.684 122.86 433.02 127.754 435.771 130.849 C 438.408 133.74 442.463 135.332 447.189 135.332 C 451.651 135.332 454.82 134.45 456.312 133.923 L 456.973 133.689 L 456.408 124.24 L 455.276 124.587 C 453.783 125.045 452.252 125.221 449.785 125.221 C 445.213 125.221 443.26 122.328 443.26 115.535 L 443.26 86.981 L 457.497 86.981 L 457.497 77.549 L 443.26 77.549 L 443.26 64.111 L 443.26 64.111 L 443.26 64.111 L 443.26 64.111 L 443.26 64.111 Z  M 550.143 76.856 L 549.435 76.676 C 548.395 76.416 547.547 76.307 546.5 76.307 C 540.325 76.307 534.785 79.943 531.703 85.808 L 531.356 77.549 L 520.765 77.549 L 520.833 78.541 C 521.148 83.213 521.279 88.459 521.279 95.536 L 521.169 134.09 L 532.971 134.09 L 532.971 104.013 C 532.971 102.375 533.083 100.826 533.296 99.437 C 534.627 92.213 539.503 87.544 545.713 87.544 C 546.921 87.544 547.872 87.643 548.88 87.743 L 550.143 87.872 L 550.143 76.856 L 550.143 76.856 L 550.143 76.856 Z  M 575.891 85.175 C 579.484 85.175 582.4 86.287 584.555 88.478 C 587.949 91.935 588.544 97.024 588.619 99.466 L 561.703 99.466 C 562.799 92.651 567.061 85.175 575.891 85.175 L 575.891 85.175 L 575.891 85.175 L 575.891 85.175 Z  M 325.971 76.307 C 317.935 76.307 311.497 79.411 307.207 85.308 L 306.736 77.549 L 295.945 77.549 L 296.005 78.541 C 296.325 83.38 296.46 88.695 296.46 96.333 L 296.46 156.459 L 308.263 156.459 L 308.263 128.4 C 311.924 132.781 317.767 135.332 324.391 135.332 C 331.288 135.332 337.644 132.631 342.283 127.729 C 347.444 122.265 350.173 114.412 350.173 105.028 C 350.173 96.737 347.801 89.568 343.313 84.301 C 338.92 79.145 332.763 76.307 325.971 76.307 L 325.971 76.307 L 325.971 76.307 L 325.971 76.307 L 325.971 76.307 L 325.971 76.307 L 325.971 76.307 L 325.971 76.307 Z  M 191.093 56.085 L 164.593 134.09 L 176.728 134.09 L 184.64 110.138 L 210.299 110.138 L 218.435 134.09 L 230.905 134.09 L 204.291 56.085 L 191.093 56.085 L 191.093 56.085 L 191.093 56.085 L 191.093 56.085 L 191.093 56.085 L 191.093 56.085 L 191.093 56.085 L 191.093 56.085 L 191.093 56.085 L 191.093 56.085 Z  M 486.744 76.307 C 470.231 76.307 458.7 88.633 458.7 106.271 C 458.7 123.383 469.859 135.332 485.84 135.332 L 485.949 135.332 C 499.46 135.332 513.995 125.92 513.995 105.254 C 513.995 96.853 511.395 89.636 506.473 84.38 C 501.523 79.101 494.697 76.307 486.744 76.307 L 486.744 76.307 L 486.744 76.307 L 486.744 76.307 L 486.744 76.307 Z  M 265.197 76.307 C 257.159 76.307 250.721 79.411 246.435 85.308 L 245.964 77.549 L 235.169 77.549 L 235.233 78.541 C 235.552 83.375 235.684 88.695 235.684 96.333 L 235.684 156.459 L 247.487 156.459 L 247.487 128.4 C 251.148 132.781 256.995 135.332 263.619 135.332 C 270.517 135.332 276.872 132.631 281.503 127.729 C 286.672 122.265 289.399 114.412 289.399 105.028 C 289.399 96.737 287.031 89.568 282.543 84.301 C 278.147 79.145 271.989 76.307 265.197 76.307 L 265.197 76.307 L 265.197 76.307 L 265.197 76.307 L 265.197 76.307 L 265.197 76.307 L 265.197 76.307 L 265.197 76.307 L 265.197 76.307 Z  M 576.676 76.195 C 560.965 76.195 549.992 88.749 549.992 106.724 C 549.992 124.032 560.908 135.22 577.807 135.22 C 586.692 135.22 592.875 133.269 596.492 131.636 L 597.203 131.314 L 594.935 122.521 L 593.949 122.917 C 590.733 124.226 586.457 125.562 579.164 125.562 C 574.036 125.562 562.211 123.871 561.487 108.45 L 599.58 108.565 L 599.733 107.811 C 599.973 106.612 600.088 104.996 600.088 102.885 C 600.088 90.573 593.957 76.195 576.676 76.195 L 576.676 76.195 L 576.676 76.195 Z  M 306.033 16.904 L 306.033 16.904 L 306.033 16.904 Q 303.826 16.904 302.81 18.262 L 302.81 18.262 L 302.81 18.262 Q 301.794 19.619 301.755 22.744 L 301.755 22.744 L 301.755 23.389 L 301.755 23.389 Q 301.755 26.904 302.8 28.428 L 302.8 28.428 L 302.8 28.428 Q 303.845 29.951 306.111 29.951 L 306.111 29.951 L 306.111 29.951 Q 310.115 29.951 310.115 23.35 L 310.115 23.35 L 310.115 23.35 Q 310.115 20.127 309.128 18.516 L 309.128 18.516 L 309.128 18.516 Q 308.142 16.904 306.033 16.904 L 306.033 16.904 Z  M 425.841 16.377 L 425.841 16.377 L 425.841 16.377 Q 423.947 16.377 422.872 17.578 L 422.872 17.578 L 422.872 17.578 Q 421.798 18.779 421.642 20.986 L 421.642 20.986 L 430.001 20.986 L 430.001 20.986 Q 429.962 18.779 428.849 17.578 L 428.849 17.578 L 428.849 17.578 Q 427.736 16.377 425.841 16.377 L 425.841 16.377 Z  M 246.994 12.51 L 246.994 12.51 L 246.994 12.51 Q 246.994 15.264 245.04 17.061 L 245.04 17.061 L 245.04 17.061 Q 243.087 18.858 239.747 19.346 L 239.747 19.346 L 239.747 19.463 L 239.747 19.463 Q 243.673 19.854 245.773 21.631 L 245.773 21.631 L 245.773 21.631 Q 247.872 23.408 247.872 26.26 L 247.872 26.26 L 247.872 26.26 Q 247.872 30.205 244.679 32.49 L 244.679 32.49 L 244.679 32.49 Q 241.486 34.775 235.841 34.775 L 235.841 34.775 L 235.841 34.775 Q 229.552 34.775 225.744 33.233 L 225.744 33.233 L 225.744 28.154 L 225.744 28.154 Q 227.579 29.033 230.05 29.531 L 230.05 29.531 L 230.05 29.531 Q 232.521 30.029 234.669 30.029 L 234.669 30.029 L 234.669 30.029 Q 241.876 30.029 241.876 25.83 L 241.876 25.83 L 241.876 25.83 Q 241.876 23.936 239.562 22.92 L 239.562 22.92 L 239.562 22.92 Q 237.247 21.904 232.716 21.904 L 232.716 21.904 L 230.04 21.904 L 230.04 17.178 L 232.443 17.178 L 232.443 17.178 Q 236.974 17.178 239.044 16.318 L 239.044 16.318 L 239.044 16.318 Q 241.115 15.459 241.115 13.467 L 241.115 13.467 L 241.115 13.467 Q 241.115 12.002 239.816 11.133 L 239.816 11.133 L 239.816 11.133 Q 238.517 10.264 235.919 10.264 L 235.919 10.264 L 235.919 10.264 Q 231.896 10.264 228.146 12.588 L 228.146 12.588 L 225.509 8.545 L 225.509 8.545 Q 227.951 6.924 230.685 6.172 L 230.685 6.172 L 230.685 6.172 Q 233.419 5.42 236.759 5.42 L 236.759 5.42 L 236.759 5.42 Q 241.427 5.42 244.21 7.373 L 244.21 7.373 L 244.21 7.373 Q 246.994 9.326 246.994 12.51 L 246.994 12.51 Z  M 264.908 26.065 L 264.908 24.268 L 262.603 24.346 L 262.603 24.346 Q 260.005 24.424 258.736 25.283 L 258.736 25.283 L 258.736 25.283 Q 257.466 26.143 257.466 27.9 L 257.466 27.9 L 257.466 27.9 Q 257.466 30.42 260.357 30.42 L 260.357 30.42 L 260.357 30.42 Q 262.427 30.42 263.667 29.229 L 263.667 29.229 L 263.667 29.229 Q 264.908 28.037 264.908 26.065 L 264.908 26.065 L 264.908 26.065 L 264.908 26.065 Z  M 276.798 12.549 L 291.876 12.549 L 291.876 17.022 L 282.755 17.022 L 282.755 34.385 L 276.798 34.385 L 276.798 12.549 L 276.798 12.549 L 276.798 12.549 Z  M 465.857 27.549 L 465.857 27.549 L 465.857 27.549 Q 465.857 26.26 464.861 25.684 L 464.861 25.684 L 464.861 25.684 Q 463.865 25.108 461.872 25.108 L 461.872 25.108 L 457.146 25.108 L 457.146 30.264 L 461.99 30.264 L 461.99 30.264 Q 463.884 30.264 464.871 29.551 L 464.871 29.551 L 464.871 29.551 Q 465.857 28.838 465.857 27.549 L 465.857 27.549 Z  M 465.31 18.74 L 465.31 18.74 L 465.31 18.74 Q 465.31 16.748 462.146 16.748 L 462.146 16.748 L 457.146 16.748 L 457.146 21.065 L 461.462 21.065 L 461.462 21.065 Q 463.357 21.065 464.333 20.518 L 464.333 20.518 L 464.333 20.518 Q 465.31 19.971 465.31 18.74 L 465.31 18.74 Z  M 326.345 34.229 L 317.673 12.549 L 324.197 12.549 L 328.318 24.834 L 328.318 24.834 Q 328.845 26.436 329.04 28.623 L 329.04 28.623 L 329.158 28.623 L 329.158 28.623 Q 329.372 26.611 329.997 24.834 L 329.997 24.834 L 334.04 12.549 L 340.427 12.549 L 331.189 37.178 L 331.189 37.178 Q 329.919 40.596 327.566 42.295 L 327.566 42.295 L 327.566 42.295 Q 325.212 43.994 322.068 43.994 L 322.068 43.994 L 322.068 43.994 Q 320.525 43.994 319.04 43.662 L 319.04 43.662 L 319.04 38.936 L 319.04 38.936 Q 320.115 39.19 321.384 39.19 L 321.384 39.19 L 321.384 39.19 Q 322.966 39.19 324.148 38.223 L 324.148 38.223 L 324.148 38.223 Q 325.329 37.256 325.994 35.303 L 325.994 35.303 L 326.345 34.229 L 326.345 34.229 L 326.345 34.229 Z  M 347.04 20.947 L 349.228 20.947 L 349.228 20.947 Q 352.607 20.947 354.023 20.4 L 354.023 20.4 L 354.023 20.4 Q 355.439 19.854 355.439 18.662 L 355.439 18.662 L 355.439 18.662 Q 355.439 17.608 354.404 17.08 L 354.404 17.08 L 354.404 17.08 Q 353.369 16.553 350.986 16.553 L 350.986 16.553 L 350.986 16.553 Q 349.482 16.553 347.578 16.924 L 347.578 16.924 L 347.578 16.924 Q 345.673 17.295 344.111 17.94 L 344.111 17.94 L 342.353 13.779 L 342.353 13.779 Q 344.677 12.9 346.865 12.52 L 346.865 12.52 L 346.865 12.52 Q 349.052 12.139 351.747 12.139 L 351.747 12.139 L 351.747 12.139 Q 355.829 12.139 358.29 13.701 L 358.29 13.701 L 358.29 13.701 Q 360.751 15.264 360.751 17.94 L 360.751 17.94 L 360.751 17.94 Q 360.751 21.631 356.396 22.744 L 356.396 22.744 L 356.396 22.94 L 356.396 22.94 Q 359.072 23.604 360.214 24.824 L 360.214 24.824 L 360.214 24.824 Q 361.357 26.045 361.357 28.018 L 361.357 28.018 L 361.357 28.018 Q 361.357 30.01 360.068 31.553 L 360.068 31.553 L 360.068 31.553 Q 358.779 33.096 356.337 33.936 L 356.337 33.936 L 356.337 33.936 Q 353.896 34.775 350.595 34.775 L 350.595 34.775 L 350.595 34.775 Q 345.126 34.775 342.197 33.428 L 342.197 33.428 L 342.197 28.506 L 342.197 28.506 Q 343.876 29.287 345.878 29.736 L 345.878 29.736 L 345.878 29.736 Q 347.88 30.186 349.755 30.186 L 349.755 30.186 L 349.755 30.186 Q 352.665 30.186 354.111 29.531 L 354.111 29.531 L 354.111 29.531 Q 355.556 28.877 355.556 27.666 L 355.556 27.666 L 355.556 27.666 Q 355.556 26.338 354.033 25.703 L 354.033 25.703 L 354.033 25.703 Q 352.509 25.068 349.345 25.068 L 349.345 25.068 L 347.04 25.068 L 347.04 20.947 L 347.04 20.947 L 347.04 20.947 Z  M 365.798 12.549 L 371.56 12.549 L 371.56 21.182 L 371.56 21.182 Q 371.56 22.549 371.111 27.861 L 371.111 27.861 L 381.189 12.549 L 388.357 12.549 L 388.357 34.385 L 382.595 34.385 L 382.595 25.674 L 382.595 25.674 Q 382.595 23.35 382.986 19.111 L 382.986 19.111 L 372.947 34.385 L 365.798 34.385 L 365.798 12.549 L 365.798 12.549 L 365.798 12.549 Z  M 392.591 12.549 L 412.865 12.549 L 412.865 17.022 L 405.716 17.022 L 405.716 34.385 L 399.759 34.385 L 399.759 17.022 L 392.591 17.022 L 392.591 12.549 L 392.591 12.549 L 392.591 12.549 Z  M 307.79 34.775 L 307.79 34.775 L 307.79 34.775 Q 303.943 34.775 301.755 31.983 L 301.755 31.983 L 301.443 31.983 L 301.443 31.983 Q 301.755 34.717 301.755 35.147 L 301.755 35.147 L 301.755 43.994 L 295.798 43.994 L 295.798 12.549 L 300.642 12.549 L 301.482 15.381 L 301.755 15.381 L 301.755 15.381 Q 303.845 12.139 307.947 12.139 L 307.947 12.139 L 307.947 12.139 Q 311.814 12.139 314.001 15.127 L 314.001 15.127 L 314.001 15.127 Q 316.189 18.115 316.189 23.428 L 316.189 23.428 L 316.189 23.428 Q 316.189 26.924 315.163 29.502 L 315.163 29.502 L 315.163 29.502 Q 314.138 32.08 312.244 33.428 L 312.244 33.428 L 312.244 33.428 Q 310.349 34.775 307.79 34.775 L 307.79 34.775 Z  M 270.826 34.385 L 266.665 34.385 L 265.513 31.416 L 265.357 31.416 L 265.357 31.416 Q 263.853 33.311 262.261 34.043 L 262.261 34.043 L 262.261 34.043 Q 260.669 34.775 258.111 34.775 L 258.111 34.775 L 258.111 34.775 Q 254.966 34.775 253.16 32.979 L 253.16 32.979 L 253.16 32.979 Q 251.353 31.182 251.353 27.861 L 251.353 27.861 L 251.353 27.861 Q 251.353 24.385 253.785 22.734 L 253.785 22.734 L 253.785 22.734 Q 256.216 21.084 261.119 20.908 L 261.119 20.908 L 264.908 20.791 L 264.908 19.834 L 264.908 19.834 Q 264.908 16.514 261.509 16.514 L 261.509 16.514 L 261.509 16.514 Q 258.892 16.514 255.357 18.096 L 255.357 18.096 L 253.384 14.072 L 253.384 14.072 Q 257.154 12.1 261.744 12.1 L 261.744 12.1 L 261.744 12.1 Q 266.138 12.1 268.482 14.014 L 268.482 14.014 L 268.482 14.014 Q 270.826 15.928 270.826 19.834 L 270.826 19.834 L 270.826 34.385 L 270.826 34.385 L 270.826 34.385 Z  M 426.681 34.775 L 426.681 34.775 L 426.681 34.775 Q 421.408 34.775 418.439 31.865 L 418.439 31.865 L 418.439 31.865 Q 415.47 28.955 415.47 23.623 L 415.47 23.623 L 415.47 23.623 Q 415.47 18.135 418.214 15.137 L 418.214 15.137 L 418.214 15.137 Q 420.958 12.139 425.802 12.139 L 425.802 12.139 L 425.802 12.139 Q 430.431 12.139 433.009 14.775 L 433.009 14.775 L 433.009 14.775 Q 435.587 17.412 435.587 22.061 L 435.587 22.061 L 435.587 24.951 L 421.505 24.951 L 421.505 24.951 Q 421.603 27.49 423.009 28.916 L 423.009 28.916 L 423.009 28.916 Q 424.415 30.342 426.954 30.342 L 426.954 30.342 L 426.954 30.342 Q 428.927 30.342 430.685 29.932 L 430.685 29.932 L 430.685 29.932 Q 432.443 29.522 434.357 28.623 L 434.357 28.623 L 434.357 33.233 L 434.357 33.233 Q 432.794 34.014 431.017 34.395 L 431.017 34.395 L 431.017 34.395 Q 429.24 34.775 426.681 34.775 L 426.681 34.775 Z  M 471.345 18.272 L 471.345 18.272 L 471.345 18.272 Q 471.345 20.029 470.242 21.27 L 470.242 21.27 L 470.242 21.27 Q 469.138 22.51 466.99 22.861 L 466.99 22.861 L 466.99 23.018 L 466.99 23.018 Q 469.314 23.291 470.671 24.609 L 470.671 24.609 L 470.671 24.609 Q 472.029 25.928 472.029 27.861 L 472.029 27.861 L 472.029 27.861 Q 472.029 31.045 469.529 32.715 L 469.529 32.715 L 469.529 32.715 Q 467.029 34.385 462.38 34.385 L 462.38 34.385 L 451.189 34.385 L 451.189 12.549 L 462.38 12.549 L 462.38 12.549 Q 466.872 12.549 469.109 14.004 L 469.109 14.004 L 469.109 14.004 Q 471.345 15.459 471.345 18.272 L 471.345 18.272 Z " fill-rule="evenodd" /></svg>
