<svg xmlns="http://www.w3.org/2000/svg" xmlns:xlink="http://www.w3.org/1999/xlink" style="isolation:isolate" viewBox="0 0 333.668 491.582" width="333.668px" height="491.582px"><path d=" M 243.345 331.576 C 211.66 388.351 180.649 435.445 179.342 437.424 L 166.834 456.383 L 154.33 437.429 C 153.016 435.434 121.767 387.918 90.323 331.576 C 46.978 253.9 25 198.472 25 166.833 C 25 88.626 88.626 25 166.834 25 C 245.042 25 308.668 88.626 308.668 166.833 C 308.668 198.476 286.69 253.902 243.345 331.576 L 243.345 331.576 Z  M 166.834 0 C 74.842 0 0 74.841 0 166.833 C 0 203.8 21.764 260.02 68.493 343.759 C 100.38 400.897 132.12 449.159 133.459 451.192 L 156.4 485.965 C 158.713 489.472 162.632 491.582 166.834 491.582 C 171.036 491.582 174.955 489.472 177.268 485.965 L 200.208 451.194 C 201.534 449.184 233.043 401.339 265.175 343.759 C 311.904 260.024 333.668 203.804 333.668 166.833 C 333.668 74.841 258.826 0 166.834 0 L 166.834 0 Z  M 166.834 233.291 C 129.614 233.291 99.334 203.011 99.334 165.791 C 99.334 128.571 129.614 98.291 166.834 98.291 C 204.055 98.291 234.334 128.571 234.334 165.791 C 234.334 203.011 204.055 233.291 166.834 233.291 L 166.834 233.291 Z  M 166.834 73.291 C 115.829 73.291 74.334 114.787 74.334 165.791 C 74.334 216.795 115.829 258.291 166.834 258.291 C 217.839 258.291 259.334 216.795 259.334 165.791 C 259.334 114.787 217.839 73.291 166.834 73.291 L 166.834 73.291 Z " fill-rule="evenodd"/></svg>
