<?xml version="1.0" standalone="no"?><!-- Generator: Gravit.io --><svg xmlns="http://www.w3.org/2000/svg" xmlns:xlink="http://www.w3.org/1999/xlink" style="isolation:isolate" viewBox="0 0 79 60" width="79" height="60"><path d=" M 77.644 27.975 C 78.375 29.344 78.602 30.394 77.738 31.884 Q 76.875 33.375 69.125 44.748 Q 61.237 56.915 60.29 57.942 C 59.344 58.969 58.688 59.367 57 59.496 Q 55.312 59.625 39.5 59.496 Q 23.625 59.554 22.031 59.496 C 20.437 59.438 19.622 58.955 18.671 57.884 Q 17.719 56.813 9.875 44.748 Q 2.164 33.559 1.223 31.826 C 0.281 30.094 0.477 29.489 1.27 28.104 Q 2.062 26.719 9.875 15.252 Q 17.512 3.413 18.6 2.222 C 19.688 1.031 20.437 0.633 21.938 0.504 Q 23.438 0.375 39.5 0.504 Q 54.562 0.352 57 0.504 C 59.437 0.656 59.456 1.069 60.337 2.128 Q 61.219 3.187 69.125 15.252 Q 76.913 26.606 77.644 27.975 Z  M 76.694 28.028 C 77.406 29.361 77.626 30.383 76.786 31.835 Q 75.945 33.286 68.399 44.359 Q 60.719 56.206 59.797 57.206 C 58.876 58.206 58.237 58.593 56.594 58.719 Q 54.951 58.845 39.555 58.719 Q 24.098 58.776 22.546 58.719 C 20.994 58.662 20.201 58.192 19.274 57.149 Q 18.347 56.106 10.71 44.359 Q 3.202 33.465 2.286 31.778 C 1.369 30.091 1.559 29.502 2.331 28.153 Q 3.103 26.805 10.71 15.64 Q 18.146 4.113 19.205 2.953 C 20.264 1.794 20.994 1.407 22.455 1.281 Q 23.915 1.155 39.555 1.281 Q 54.22 1.133 56.594 1.281 C 58.967 1.429 58.985 1.831 59.843 2.862 Q 60.701 3.893 68.399 15.64 Q 75.983 26.696 76.694 28.028 Z " fill-rule="evenodd"/></svg>
