<?xml version="1.0" standalone="no"?><!-- Generator: Gravit.io --><svg xmlns="http://www.w3.org/2000/svg" xmlns:xlink="http://www.w3.org/1999/xlink" style="isolation:isolate" viewBox="0 0 107 107" width="107" height="107"><path d=" M 83.51 91.591 L 83.31 91.28 C 82.69 90.29 82 89.35 81.25 88.46 C 80.57 87.64 79.84 86.88 79.06 86.17 C 78.31 85.49 77.52 84.87 76.69 84.3 C 75.87 83.74 75.01 83.23 74.11 82.79 C 72.6 82.05 71 81.5 69.35 81.16 C 68.01 80.9 66.66 80.72 65.31 80.62 C 64.61 80.57 63.91 80.5 63.21 80.4 C 62.5 80.31 61.81 80.11 61.16 79.81 C 60.63 79.56 60.12 79.28 59.63 78.97 C 59.19 78.7 58.79 78.37 58.43 78 C 58.1 77.64 57.82 77.24 57.6 76.81 C 57.41 76.44 57.25 76.06 57.12 75.68 C 57.05 75.48 56.99 75.28 56.94 75.08 C 56.89 74.85 56.85 74.62 56.82 74.39 C 56.74 73.79 56.72 73.19 56.75 72.58 C 56.8 71.54 56.9 70.49 57.06 69.45 C 57.33 68.8 57.66 68.17 58.06 67.58 C 58.39 67.09 58.77 66.64 59.19 66.22 C 59.61 65.8 60.06 65.42 60.56 65.08 C 61.07 64.74 61.61 64.43 62.17 64.18 C 62.91 63.84 63.61 63.43 64.27 62.95 C 65.15 62.34 65.97 61.65 66.73 60.9 C 67.53 60.12 68.24 59.25 68.85 58.31 C 69.4 57.47 69.81 56.53 70.05 55.55 C 70.27 54.52 70.44 53.49 70.56 52.44 C 70.74 50.97 70.89 49.49 71.01 48.01 C 71.28 44.85 71.42 41.67 71.43 38.49 C 71.44 37.42 71.41 36.35 71.33 35.28 C 71.31 34.91 71.27 34.54 71.21 34.17 C 71.19 33.98 71.15 33.79 71.09 33.6 C 70.8 32.71 70.45 31.83 70.05 30.97 C 69.52 29.85 68.88 28.8 68.12 27.82 C 67.26 26.7 66.23 25.72 65.07 24.92 C 64.018 24.206 64.156 24.125 61.653 23.255 C 59.15 22.386 56.904 22.263 56.29 22.19 C 55.461 22.095 54.627 22.037 53.788 22.021 C 53.743 22.024 51.849 22.095 51.02 22.19 C 50.406 22.263 49.793 22.351 49.185 22.463 C 48.664 22.576 44.656 23 42.24 24.92 C 39.824 26.84 40.05 26.7 39.19 27.82 C 38.43 28.8 37.79 29.85 37.26 30.97 C 36.86 31.83 36.51 32.71 36.22 33.6 C 36.16 33.79 36.12 33.98 36.1 34.17 C 36.04 34.54 36 34.91 35.98 35.28 C 35.9 36.35 35.87 37.42 35.88 38.49 C 35.89 41.67 36.03 44.85 36.3 48.01 C 36.42 49.49 36.57 50.97 36.75 52.44 C 36.87 53.49 37.04 54.52 37.26 55.55 C 37.5 56.53 37.91 57.47 38.46 58.31 C 39.07 59.25 39.78 60.12 40.58 60.9 C 41.34 61.65 42.16 62.34 43.04 62.95 C 43.7 63.43 44.4 63.84 45.14 64.18 C 45.7 64.43 46.24 64.74 46.75 65.08 C 47.25 65.42 47.7 65.8 48.12 66.22 C 48.54 66.64 48.92 67.09 49.25 67.58 C 49.65 68.17 49.98 68.8 50.25 69.45 C 50.41 70.49 50.51 71.54 50.56 72.58 C 50.59 73.19 50.57 73.79 50.49 74.39 C 50.46 74.62 50.42 74.85 50.37 75.08 C 50.32 75.28 50.26 75.48 50.19 75.68 C 50.06 76.06 49.9 76.44 49.71 76.81 C 49.49 77.24 49.21 77.64 48.88 78 C 48.52 78.37 48.12 78.7 47.68 78.97 C 47.19 79.28 46.68 79.56 46.15 79.81 C 45.5 80.11 44.81 80.31 44.1 80.4 C 43.4 80.5 42.7 80.57 42 80.62 C 40.65 80.72 39.3 80.9 37.96 81.16 C 36.31 81.5 34.71 82.05 33.2 82.79 C 32.3 83.23 31.44 83.74 30.62 84.3 C 29.79 84.87 29 85.49 28.25 86.17 C 27.47 86.88 26.74 87.64 26.06 88.46 C 25.31 89.35 24.62 90.29 24 91.28 L 23.696 91.753 L 23.696 91.753 C 31.921 98.173 42.267 102 53.5 102 C 64.827 102 75.252 98.109 83.51 91.591 Z  M 86.578 88.95 C 85.889 87.89 85.136 86.868 84.32 85.89 C 83.53 84.94 82.67 84.04 81.75 83.21 C 80.86 82.41 79.93 81.67 78.95 81 C 77.97 80.33 76.95 79.73 75.89 79.21 C 74.06 78.31 72.12 77.64 70.13 77.23 C 68.63 76.94 67.12 76.74 65.6 76.63 C 64.98 76.59 64.36 76.52 63.74 76.43 C 63.43 76.4 63.13 76.31 62.84 76.19 C 62.47 76.01 62.11 75.81 61.76 75.59 C 61.61 75.49 61.47 75.38 61.34 75.25 C 61.27 75.17 61.21 75.09 61.17 75 C 61.06 74.78 60.96 74.55 60.88 74.32 C 60.86 74.28 60.85 74.23 60.84 74.19 C 60.82 74.09 60.8 73.99 60.79 73.88 C 60.74 73.51 60.73 73.14 60.74 72.77 C 60.78 72.04 60.84 71.3 60.94 70.57 C 61.07 70.31 61.21 70.06 61.37 69.83 C 61.56 69.55 61.78 69.28 62.02 69.04 C 62.26 68.8 62.52 68.58 62.81 68.39 C 63.13 68.17 63.47 67.98 63.83 67.82 C 64.8 67.37 65.72 66.83 66.58 66.21 C 67.63 65.48 68.62 64.65 69.53 63.75 C 70.54 62.77 71.43 61.68 72.2 60.5 C 73.01 59.26 73.6 57.89 73.95 56.45 C 74.2 55.28 74.4 54.1 74.53 52.91 C 74.72 51.39 74.87 49.87 74.99 48.34 C 75.27 45.07 75.42 41.79 75.43 38.51 C 75.44 37.34 75.4 36.17 75.33 35.01 C 75.29 34.54 75.24 34.08 75.18 33.62 C 75.12 33.2 75.03 32.79 74.91 32.39 C 74.56 31.33 74.15 30.28 73.67 29.27 C 73.02 27.89 72.22 26.58 71.29 25.37 C 70.17 23.93 68.84 22.66 67.33 21.62 C 65.55 20.41 63.56 19.54 61.46 19.05 C 60.638 18.859 59.81 18.691 58.979 18.557 C 58.635 18.475 58.288 18.408 57.94 18.35 C 56.81 18.16 55.67 18.06 54.53 18.03 C 54.305 18.025 54.08 18.022 53.855 18.022 C 53.788 18.023 53.722 18.023 53.655 18.02 C 53.588 18.024 53.522 18.025 53.455 18.022 C 53.23 18.022 53.005 18.025 52.78 18.03 C 51.64 18.06 50.5 18.16 49.37 18.35 C 49.022 18.408 48.675 18.475 48.331 18.557 C 47.5 18.691 46.672 18.859 45.85 19.05 C 43.75 19.54 41.76 20.41 39.98 21.62 C 38.47 22.66 37.14 23.93 36.02 25.37 C 35.09 26.58 34.29 27.89 33.64 29.27 C 33.16 30.28 32.75 31.33 32.4 32.39 C 32.28 32.79 32.19 33.2 32.13 33.62 C 32.07 34.08 32.02 34.54 31.98 35.01 C 31.91 36.17 31.87 37.34 31.88 38.51 C 31.89 41.79 32.04 45.07 32.32 48.34 C 32.44 49.87 32.59 51.39 32.78 52.91 C 32.91 54.1 33.11 55.28 33.36 56.45 C 33.71 57.89 34.3 59.26 35.11 60.5 C 35.88 61.68 36.77 62.77 37.78 63.75 C 38.69 64.65 39.68 65.48 40.73 66.21 C 41.59 66.83 42.51 67.37 43.48 67.82 C 43.84 67.98 44.18 68.17 44.5 68.39 C 44.79 68.58 45.05 68.8 45.29 69.04 C 45.53 69.28 45.75 69.55 45.94 69.83 C 46.1 70.06 46.24 70.31 46.37 70.57 C 46.47 71.3 46.53 72.04 46.57 72.77 C 46.58 73.14 46.57 73.51 46.52 73.88 C 46.51 73.99 46.49 74.09 46.47 74.19 C 46.46 74.23 46.45 74.28 46.43 74.32 C 46.35 74.55 46.25 74.78 46.14 75 C 46.1 75.09 46.04 75.17 45.97 75.25 C 45.84 75.38 45.7 75.49 45.55 75.59 C 45.2 75.81 44.84 76.01 44.47 76.19 C 44.18 76.31 43.88 76.4 43.57 76.43 C 42.95 76.52 42.33 76.59 41.71 76.63 C 40.19 76.74 38.68 76.94 37.18 77.23 C 35.19 77.64 33.25 78.31 31.42 79.21 C 30.36 79.73 29.34 80.33 28.36 81 C 27.38 81.67 26.45 82.41 25.56 83.21 C 24.64 84.04 23.78 84.94 22.99 85.89 C 22.13 86.92 21.34 88 20.62 89.12 L 20.612 89.133 C 11.014 80.269 5 67.582 5 53.5 C 5 26.732 26.732 5 53.5 5 C 80.268 5 102 26.732 102 53.5 C 102 67.487 96.067 80.099 86.578 88.95 Z  M 0 53.5 C 0 23.973 23.973 0 53.5 0 C 83.027 0 107 23.973 107 53.5 C 107 83.027 83.027 107 53.5 107 C 23.973 107 0 83.027 0 53.5 L 0 53.5 Z " fill-rule="evenodd"/></svg>
