<?xml version="1.0" standalone="no"?><!-- Generator: Gravit.io --><svg xmlns="http://www.w3.org/2000/svg" xmlns:xlink="http://www.w3.org/1999/xlink" style="isolation:isolate" viewBox="0 0 79 60" width="79" height="60"><path d=" M 77.644 27.975 C 78.375 29.344 78.602 30.394 77.738 31.884 Q 76.875 33.375 69.125 44.748 Q 61.237 56.915 60.29 57.942 C 59.344 58.969 58.688 59.367 57 59.496 Q 55.313 59.625 39.5 59.496 Q 23.625 59.554 22.031 59.496 C 20.438 59.438 19.622 58.955 18.671 57.884 Q 17.719 56.813 9.875 44.748 Q 2.164 33.559 1.223 31.826 C 0.281 30.094 0.477 29.489 1.27 28.104 Q 2.062 26.719 9.875 15.252 Q 17.512 3.413 18.6 2.222 C 19.688 1.031 20.438 0.633 21.938 0.504 Q 23.438 0.375 39.5 0.504 Q 54.563 0.352 57 0.504 C 59.438 0.656 59.456 1.069 60.337 2.128 Q 61.219 3.188 69.125 15.252 Q 76.913 26.606 77.644 27.975 Z "/></svg>
