<svg xmlns="http://www.w3.org/2000/svg" xmlns:xlink="http://www.w3.org/1999/xlink" style="isolation:isolate" viewBox="0 0 512 512" width="512px" height="512px"><path d=" M 90.684 241 C 93.793 206.477 107.508 174.965 128.551 149.766 L 148.934 170.148 L 170.148 148.934 L 149.766 128.551 C 174.965 107.508 206.477 93.793 241 90.684 L 241 120 L 271 120 L 271 90.684 C 305.523 93.793 337.035 107.508 362.234 128.551 L 341.852 148.934 L 363.066 170.148 L 383.449 149.766 C 404.488 174.965 418.207 206.477 421.316 241 L 392 241 L 392 270.988 L 421.309 270.988 C 418.043 307.129 403.074 341.43 378.871 368.078 C 341.492 344.016 298.461 332 256 332 C 213.629 332 170.586 343.965 133.129 368.078 C 108.926 341.43 93.957 307.137 90.691 271 L 120 271 L 120 241 L 90.684 241 L 90.684 241 L 90.684 241 Z  M 256 30 C 380.617 30 482 131.383 482 256 C 482 313.816 460.168 366.621 424.324 406.633 C 417.719 399.316 410.602 392.434 403.059 386.023 C 434.328 350.492 452 304 452 256 C 452 148.363 363.648 60 256 60 C 148.363 60 60 148.352 60 256 C 60 304 77.672 350.492 108.941 386.023 C 101.398 392.434 94.281 399.316 87.676 406.633 C 51.832 366.621 30 313.816 30 256 C 30 131.383 131.383 30 256 30 L 256 30 L 256 30 Z  M 211 392 L 301 392 L 301 422 L 211 422 L 211 392 L 211 392 Z  M 109.141 427.633 C 145.98 386.313 199.859 362 256 362 C 312.141 362 366.02 386.313 402.859 427.633 C 363.332 461.504 312.016 482 256 482 C 199.984 482 148.668 461.504 109.141 427.633 L 109.141 427.633 L 109.141 427.633 Z  M 256 512 C 396.961 512 512 396.949 512 256 C 512 115.039 396.949 0 256 0 C 115.039 0 0 115.051 0 256 C 0 396.961 115.051 512 256 512 L 256 512 L 256 512 Z  M 264.422 243.582 C 268.555 246.387 271 250.973 271 256 C 271 264.27 264.27 271 256 271 C 250.973 271 246.387 268.555 243.582 264.422 L 226.215 226.211 L 264.422 243.582 L 264.422 243.582 Z  M 217.559 279.398 C 225.801 292.926 240.172 301 256 301 C 280.813 301 301 280.813 301 256 C 301 240.172 292.926 225.801 279.398 217.559 L 278.625 217.086 L 165.785 165.789 L 217.086 278.625 L 217.559 279.398 L 217.559 279.398 Z " fill-rule="evenodd"/></svg>
