<svg xmlns="http://www.w3.org/2000/svg" xmlns:xlink="http://www.w3.org/1999/xlink" style="isolation:isolate"
     viewBox="0 0 512.001 416.09" width="512.001" height="416.09">
        <path d=" M 512.001 49.255 C 493.161 57.609 472.919 63.256 451.671 65.795 C 473.357 52.795 490.013 32.21 497.857 7.68 C 477.558 19.719 455.08 28.46 431.152 33.17 C 411.992 12.755 384.691 0 354.478 0 C 296.467 0 249.436 47.029 249.436 105.039 C 249.436 113.272 250.365 121.289 252.156 128.978 C 164.856 124.596 87.455 82.778 35.647 19.225 C 26.605 34.739 21.424 52.783 21.424 72.034 C 21.424 108.478 39.968 140.63 68.154 159.467 C 50.935 158.921 34.738 154.196 20.577 146.328 C 20.567 146.766 20.567 147.206 20.567 147.649 C 20.567 198.543 56.776 240.997 104.828 250.649 C 96.015 253.048 86.734 254.336 77.154 254.336 C 70.385 254.336 63.805 253.676 57.39 252.448 C 70.758 294.178 109.55 324.552 155.516 325.397 C 119.566 353.573 74.273 370.364 25.058 370.364 C 16.579 370.364 8.218 369.868 0 368.893 C 46.486 398.7 101.701 416.09 161.021 416.09 C 354.232 416.09 459.889 256.028 459.889 117.218 C 459.889 112.664 459.785 108.134 459.584 103.628 C 480.11 88.819 497.919 70.319 512.001 49.255 Z "
        />
</svg>