<?xml version="1.0" standalone="no"?><!-- Generator: Gravit.io -->
<svg xmlns="http://www.w3.org/2000/svg" xmlns:xlink="http://www.w3.org/1999/xlink" style="isolation:isolate"
     viewBox="0 0 511.626 365.45" width="511.626" height="365.45">
        <path d=" M 511.339 139.899 C 511.153 129.622 510.339 116.628 508.916 100.929 C 507.485 85.221 505.438 71.183 502.776 58.814 C 499.73 44.921 493.115 33.214 482.934 23.697 C 472.753 14.178 460.903 8.66 447.385 7.135 C 405.127 2.38 341.27 0 255.812 0 C 170.353 0 106.495 2.38 64.24 7.135 C 50.724 8.659 38.921 14.178 28.836 23.697 C 18.747 33.211 12.18 44.918 9.134 58.814 C 6.282 71.187 4.138 85.224 2.711 100.929 C 1.286 116.628 0.476 129.617 0.287 139.899 C 0.094 150.177 0 164.451 0 182.725 C 0 200.997 0.094 215.275 0.288 225.551 C 0.477 235.835 1.287 248.822 2.712 264.52 C 4.139 280.227 6.186 294.265 8.851 306.636 C 11.897 320.533 18.51 332.238 28.693 341.751 C 38.878 351.268 50.729 356.787 64.241 358.311 C 106.496 363.071 170.35 365.45 255.813 365.45 C 341.279 365.45 405.128 363.071 447.386 358.311 C 460.904 356.788 472.702 351.268 482.791 341.751 C 492.88 332.237 499.443 320.526 502.489 306.636 C 505.343 294.265 507.485 280.227 508.916 264.52 C 510.339 248.823 511.147 235.829 511.339 225.551 C 511.53 215.275 511.626 200.997 511.626 182.725 C 511.626 164.451 511.531 150.177 511.339 139.899 Z  M 356.883 198.143 L 210.706 289.502 C 208.04 291.405 204.801 292.356 200.996 292.356 C 198.143 292.356 195.193 291.592 192.148 290.07 C 185.868 286.648 182.729 281.316 182.729 274.085 L 182.729 91.366 C 182.729 84.137 185.869 78.805 192.148 75.38 C 198.621 71.949 204.805 72.141 210.706 75.951 L 356.884 167.311 C 362.592 170.541 365.446 175.683 365.446 182.726 C 365.446 189.766 362.591 194.91 356.883 198.143 Z "
        />
</svg>