<?xml version="1.0" standalone="no"?><!-- Generator: Gravit.io --><svg xmlns="http://www.w3.org/2000/svg" xmlns:xlink="http://www.w3.org/1999/xlink" style="isolation:isolate" viewBox="0 0 64 64" width="64" height="64"><path d=" M 28.941 31.786 L 0.613 60.114 C -0.174 60.901 -0.174 62.176 0.613 62.963 C 1.006 63.357 1.522 63.553 2.037 63.553 C 2.553 63.553 3.068 63.357 3.461 62.963 L 32.002 34.422 L 60.543 62.963 C 60.937 63.357 61.452 63.553 61.967 63.553 C 62.482 63.553 62.998 63.357 63.391 62.963 C 64.178 62.176 64.178 60.901 63.391 60.114 L 35.064 31.786 L 63.41 3.438 C 64.197 2.651 64.197 1.376 63.41 0.589 C 62.623 -0.197 61.348 -0.197 60.562 0.589 L 32.003 29.15 L 3.441 0.59 C 2.654 -0.196 1.38 -0.196 0.593 0.59 C -0.194 1.377 -0.194 2.652 0.593 3.439 L 28.941 31.786 L 28.941 31.786 Z " /></svg>
