<svg xmlns="http://www.w3.org/2000/svg" xmlns:xlink="http://www.w3.org/1999/xlink" style="isolation:isolate" viewBox="0 0 516 516" width="516px" height="516px"><path d=" M 475 291 L 435 296 C 428 297 421 302 419 309 C 413 326 415 321 408 336 C 405 343 406 351 410 357 L 435 388 C 430 394 423 403 413 413 C 403 423 395 430 389 435 L 357 410 C 351 406 343 405 336 408 C 319 416 327 413 309 419 C 302 421 297 428 296 435 L 291 475 C 283 476 272 477 258 477 C 244 477 233 476 225 475 L 220 435 C 219 428 214 421 207 419 C 190 413 195 415 180 408 C 173 405 166 406 160 410 L 128 435 C 122 430 113 423 103 413 C 93 403 87 395 82 389 L 106 357 C 110 351 111 343 108 336 C 100 321 103 326 97 309 C 95 302 88 297 81 296 L 41 291 C 40 283 39 272 39 258 C 39 244 40 233 41 225 L 81 220 C 88 219 95 214 97 207 C 99 200 102 194 102 193 C 102 193 105 186 108 180 C 111 173 110 166 106 160 L 82 128 C 87 122 93 113 103 103 C 113 93 122 87 128 82 L 160 106 C 166 110 173 111 180 108 C 195 100 190 103 207 97 C 214 95 219 88 220 81 L 225 41 C 233 40 244 39 258 39 C 272 39 283 40 291 41 L 296 81 C 297 88 302 95 309 97 C 326 103 321 101 336 108 C 343 111 351 110 357 106 L 389 82 C 395 87 403 93 413 103 C 423 113 430 122 435 128 L 410 160 C 406 166 405 173 408 180 C 416 197 414 189 420 207 C 422 214 428 219 435 220 L 475 225 C 476 233 477 244 477 258 C 477 272 476 283 475 291 L 475 291 Z  M 510 203 C 508 195 502 190 494 189 L 452 183 C 450 177 451 180 448 174 L 474 140 C 479 134 479 125 475 118 C 475 117 464 100 440 76 C 416 52 399 41 398 41 C 391 37 382 37 376 42 L 342 68 C 336 65 339 66 333 64 L 327 22 C 326 14 321 8 313 6 C 312 6 292 0 258 0 C 224 0 204 6 203 6 C 195 8 190 14 189 22 L 183 64 C 177 66 180 65 174 68 L 140 42 C 134 37 125 37 118 41 C 117 41 100 52 76 76 C 52 100 41 117 41 118 C 37 125 37 134 42 140 L 68 174 C 65 180 66 178 64 184 L 22 189 C 14 190 8 195 6 203 C 6 204 0 224 0 258 C 0 292 6 312 6 313 C 8 321 14 326 22 327 L 64 333 C 66 339 65 336 68 342 L 42 376 C 37 382 37 391 41 398 C 41 399 52 416 76 440 C 100 464 117 475 118 475 C 125 479 134 479 140 474 L 174 448 C 180 451 178 450 184 452 L 189 494 C 190 502 195 508 203 510 C 204 510 224 516 258 516 C 292 516 312 510 313 510 C 321 508 326 502 327 494 L 333 452 C 339 450 336 451 342 448 L 376 474 C 382 479 391 479 398 475 C 399 475 416 464 440 440 C 464 416 475 399 475 398 C 479 391 479 382 474 376 L 448 342 C 451 336 450 339 452 333 L 494 327 C 502 326 508 321 510 313 C 510 312 516 292 516 258 C 516 224 510 204 510 203 L 510 203 Z  M 258 342 C 211 342 174 305 174 258 C 174 211 211 174 258 174 C 305 174 342 211 342 258 C 342 305 305 342 258 342 L 258 342 Z  M 258 135 C 190 135 135 190 135 258 C 135 326 190 381 258 381 C 326 381 381 326 381 258 C 381 190 326 135 258 135 L 258 135 Z " fill-rule="evenodd" /></svg>
