<?xml version="1.0" standalone="no"?><!-- Generator: Gravit.io -->
<svg xmlns="http://www.w3.org/2000/svg" xmlns:xlink="http://www.w3.org/1999/xlink" style="isolation:isolate"
     viewBox="0 0 51.969 96.123" width="51.969" height="96.123">
        <path d=" M 50.012 0.02 L 37.547 0 C 23.543 0 14.493 9.285 14.493 23.656 L 14.493 34.563 L 1.96 34.563 C 0.877 34.563 0 35.441 0 36.524 L 0 52.327 C 0 53.41 0.878 54.287 1.96 54.287 L 14.493 54.287 L 14.493 94.163 C 14.493 95.246 15.37 96.123 16.453 96.123 L 32.805 96.123 C 33.888 96.123 34.765 95.245 34.765 94.163 L 34.765 54.287 L 49.419 54.287 C 50.502 54.287 51.379 53.41 51.379 52.327 L 51.385 36.524 C 51.385 36.004 51.178 35.506 50.811 35.138 C 50.444 34.77 49.944 34.563 49.424 34.563 L 34.765 34.563 L 34.765 25.317 C 34.765 20.873 35.824 18.617 41.613 18.617 L 50.01 18.614 C 51.092 18.614 51.969 17.736 51.969 16.654 L 51.969 1.98 C 51.969 0.899 51.093 0.022 50.012 0.02 Z "
        />
</svg>