<?xml version="1.0" standalone="no"?><!-- Generator: Gravit.io --><svg xmlns="http://www.w3.org/2000/svg" xmlns:xlink="http://www.w3.org/1999/xlink" style="isolation:isolate" viewBox="0 0 24.776 25.992" width="24.776" height="25.992"><path d=" M 13.756 17.822 C 13.756 16.91 14.06 14.516 15.162 13.034 C 16.568 11.134 17.86 9.956 20.976 9.956 C 23.104 9.956 24.776 11.932 24.776 14.06 C 24.776 16.188 23.408 18.468 21.926 19.342 C 21.926 16.834 20.9 15.276 18.126 15.276 C 16.378 15.276 15.124 16.53 15.124 17.822 C 15.922 17.822 16.758 18.316 16.758 19.304 C 16.188 18.962 15.694 18.734 15.124 18.734 C 15.124 19.646 15.428 20.71 16.15 21.47 C 16.302 20.71 16.606 20.102 17.214 20.102 C 17.936 20.102 18.62 20.9 18.62 21.774 C 18.62 22.686 18.088 23.408 17.176 23.408 C 15.656 23.408 14.06 21.47 13.908 18.734 C 13.908 18.734 13.148 18.734 13.148 18.734 C 13.148 19.684 13.224 20.444 13.452 21.014 C 13.604 21.432 13.756 21.812 13.756 22.192 C 13.756 22.724 12.996 24.624 12.388 25.992 C 11.78 24.624 11.02 22.724 11.02 22.192 C 11.02 21.812 11.172 21.432 11.324 21.014 C 11.552 20.444 11.628 19.684 11.628 18.734 C 11.628 18.734 10.868 18.734 10.868 18.734 C 10.716 21.47 9.12 23.408 7.6 23.408 C 6.688 23.408 6.156 22.686 6.156 21.774 C 6.156 20.9 6.84 20.102 7.562 20.102 C 8.17 20.102 8.474 20.71 8.626 21.47 C 9.348 20.71 9.652 19.646 9.652 18.734 C 9.082 18.734 8.588 18.962 8.018 19.304 C 8.018 18.316 8.854 17.822 9.652 17.822 C 9.652 16.53 8.398 15.276 6.65 15.276 C 3.876 15.276 2.85 16.834 2.85 19.342 C 1.368 18.468 0 16.188 0 14.06 C 0 11.932 1.672 9.956 3.8 9.956 C 6.916 9.956 8.208 11.134 9.614 13.034 C 10.716 14.516 11.02 16.91 11.02 17.822 C 11.02 17.822 11.628 17.822 11.628 17.822 C 11.628 15.656 10.64 13.49 9.652 11.628 C 9.196 10.754 8.664 9.69 8.664 8.74 C 8.664 7.6 9.196 6.346 9.956 4.978 C 10.678 3.648 11.704 1.672 12.388 0 C 13.072 1.672 14.098 3.648 14.82 4.978 C 15.58 6.346 16.112 7.6 16.112 8.74 C 16.112 9.69 15.58 10.754 15.124 11.628 C 14.136 13.49 13.148 15.656 13.148 17.822 C 13.148 17.822 13.756 17.822 13.756 17.822 Z " fill-rule="evenodd" /></svg>
