<?xml version="1.0" standalone="no"?><!-- Generator: Gravit.io --><svg xmlns="http://www.w3.org/2000/svg" xmlns:xlink="http://www.w3.org/1999/xlink" style="isolation:isolate" viewBox="0 0 490 490" width="490" height="490"><path d=" M 484 455.2 L 366.2 337.4 C 395.4 301.8 413 256.2 413 206.5 C 413 92.5 320.5 0 206.5 0 C 92.4 0 0 92.5 0 206.5 C 0 320.5 92.4 413 206.5 413 C 256.2 413 301.7 395.5 337.3 366.3 L 455.1 484 C 463.1 492 476 492 484 484 C 492 476.1 492 463.1 484 455.2 Z  M 206.5 371.9 C 115.2 371.9 41 297.7 41 206.5 C 41 115.3 115.2 41 206.5 41 C 297.7 41 372 115.3 372 206.5 C 372 297.7 297.7 371.9 206.5 371.9 Z " fill="rgb(0,0,0)"/></svg>
