<svg xmlns="http://www.w3.org/2000/svg" xmlns:xlink="http://www.w3.org/1999/xlink" style="isolation:isolate" viewBox="0 0 480 512" width="480px" height="512px"><path d=" M 256 208 L 128 208 L 128 112 L 256 112 L 256 208 L 256 208 L 256 208 Z  M 288 96 C 288 87.163 280.837 80 272 80 L 112 80 C 103.163 80 96 87.163 96 96 L 96 224 C 96 232.837 103.163 240 112 240 L 272 240 C 280.837 240 288 232.837 288 224 L 288 96 L 288 96 L 288 96 Z  M 352 480 L 32 480 L 32 457.656 L 55.156 446.078 C 60.578 443.367 64 437.828 64 431.765 L 64 63.765 C 64 46.117 79.115 32 96.764 32 L 288.764 32 C 306.412 32 320 46.117 320 63.766 L 320 431.766 C 320 437.829 323.422 443.368 328.844 446.079 L 352 457.656 L 352 480 L 352 480 L 352 480 Z  M 471.538 113.453 L 407.729 81.453 C 399.807 77.484 390.309 80.711 386.356 88.609 C 382.403 96.515 385.654 106.125 393.56 110.078 L 417.861 122.217 C 417.211 123.957 416.37 125.797 416.37 127.766 C 416.37 148.598 432 166.192 448 172.817 L 448 367.766 C 448 376.586 440.82 383.766 432 383.766 C 423.18 383.766 416 376.586 416 367.766 L 416 239.766 C 416 201.135 384 168.817 352 161.383 L 352 63.766 C 352 28.477 324.053 0 288.764 0 L 96.764 0 C 61.475 0 32 28.477 32 63.766 L 32 421.875 L 8.844 433.453 C 3.422 436.164 0 441.703 0 447.766 L 0 495.766 C 0 504.602 7.928 512 16.764 512 L 368.764 512 C 377.6 512 384 504.602 384 495.766 L 384 447.766 C 384 441.703 380.578 436.164 375.156 433.453 L 352 421.875 L 352 194.715 C 368 201.34 384 218.934 384 239.766 L 384 367.766 C 384 394.235 405.531 415.766 432 415.766 C 458.469 415.766 480 394.235 480 367.766 L 480 127.766 C 480 121.703 476.96 116.164 471.538 113.453 L 471.538 113.453 Z " fill-rule="evenodd" /></svg>
