<svg xmlns="http://www.w3.org/2000/svg" xmlns:xlink="http://www.w3.org/1999/xlink" style="isolation:isolate" viewBox="0 0 612 611.664" width="612px" height="611.664px"><path d=" M 538.724 440.685 C 514.703 481.88 481.795 514.561 440.349 538.724 C 399.154 562.745 354.017 574.859 305.504 574.859 C 269.034 574.859 234.234 567.835 201.104 553.444 C 167.975 539.06 139.371 520.15 115.443 496.229 C 91.515 472.301 72.47 443.418 58.229 410.232 C 44.03 377.167 37.149 341.974 37.149 305.497 C 37.149 256.977 49.07 212.069 72.956 170.988 C 96.927 129.757 129.842 97.041 170.995 72.948 C 212.141 48.856 256.985 36.806 305.497 36.806 C 354.017 36.806 399.146 48.927 440.342 72.948 C 481.788 97.112 514.625 129.827 538.717 170.987 C 562.809 212.14 574.852 256.977 574.852 305.496 C 574.852 354.017 562.888 399.231 538.724 440.685 L 538.724 440.685 Z  M 587.572 186.713 C 555.306 111.488 500.476 56.779 424.623 24.428 C 386.711 8.259 346.992 0 305.497 0 C 264.009 0 224.583 8.181 186.713 24.428 C 111.488 56.693 56.415 111.367 24.092 186.713 C 7.895 224.461 0 264.008 0 305.496 C 0 346.992 7.895 386.867 24.092 424.623 C 56.415 499.969 111.495 554.971 186.713 587.244 C 224.59 603.491 264.008 611.664 305.497 611.664 C 346.986 611.664 386.711 603.405 424.617 587.244 C 500.47 554.892 555.3 499.841 587.573 424.623 C 603.819 386.746 612 346.992 612 305.496 C 612 264.008 603.826 224.589 587.572 186.713 L 587.572 186.713 Z  M 324.906 302.82 L 324.906 129.491 C 324.906 119.119 315.869 110.753 305.496 110.753 C 295.795 110.753 287.093 119.119 287.093 129.491 L 287.093 305.496 C 287.093 305.832 287.764 307.174 287.764 308.174 C 287.093 314.198 288.771 319.217 292.783 323.236 L 392.836 423.282 C 399.531 429.977 411.909 429.977 418.599 423.282 C 426.293 415.587 425.787 404.422 418.599 397.183 L 324.906 302.82 L 324.906 302.82 Z " fill-rule="evenodd"/></svg>
