<svg xmlns="http://www.w3.org/2000/svg" xmlns:xlink="http://www.w3.org/1999/xlink" style="isolation:isolate" viewBox="0 0 512 480" width="512px" height="480px"><path d=" M 326 240 C 320.48 240 316 244.48 316 250 C 316 255.52 320.48 260 326 260 C 331.52 260 336 255.52 336 250 C 336 244.48 331.52 240 326 240 L 326 240 L 326 240 L 326 240 L 326 240 L 326 240 L 326 240 Z  M 426 460 L 86 460 L 86 430 C 86 424.486 90.486 420 96 420 C 118.473 420 402.383 420 416 420 C 421.514 420 426 424.486 426 430 L 426 460 L 426 460 L 426 460 L 426 460 L 426 460 L 426 460 L 426 460 L 426 460 L 426 460 Z  M 358.239 368.213 L 343.569 287.463 C 342.582 282.027 337.367 278.419 331.943 279.411 C 326.508 280.398 322.904 285.603 323.891 291.037 L 338.561 371.787 C 339.555 377.263 344.803 380.823 350.187 379.839 C 355.622 378.852 359.227 373.646 358.239 368.213 L 358.239 368.213 L 358.239 368.213 L 358.239 368.213 L 358.239 368.213 L 358.239 368.213 Z  M 502 240 L 416 240 C 410.478 240 406 244.478 406 250 C 406 255.522 410.478 260 416 260 L 502 260 C 507.522 260 512 255.522 512 250 C 512 244.478 507.522 240 502 240 L 502 240 L 502 240 L 502 240 L 502 240 Z  M 96 240 L 10 240 C 4.477 240 0 244.478 0 250 C 0 255.522 4.477 260 10 260 L 96 260 C 101.523 260 106 255.522 106 250 C 106 244.478 101.523 240 96 240 L 96 240 L 96 240 L 96 240 Z  M 432.781 73.219 C 428.875 69.315 422.545 69.315 418.638 73.219 L 362.068 129.789 C 358.163 133.694 358.163 140.026 362.068 143.932 C 365.975 147.837 372.304 147.836 376.211 143.932 L 432.781 87.362 C 436.687 83.456 436.687 77.124 432.781 73.219 L 432.781 73.219 L 432.781 73.219 Z  M 149.932 129.789 L 93.362 73.219 C 89.456 69.315 83.125 69.314 79.219 73.219 C 75.314 77.124 75.314 83.456 79.219 87.362 L 135.789 143.932 C 139.696 147.837 146.026 147.837 149.932 143.932 C 153.837 140.027 153.837 133.695 149.932 129.789 L 149.932 129.789 Z  M 160.189 221.056 C 164.508 197.267 185.196 180 209.38 180 L 302.62 180 C 326.801 180 347.493 197.268 351.815 221.025 L 383.738 400 L 128.262 400 L 160.189 221.056 L 160.189 221.056 L 160.189 221.056 L 160.189 221.056 L 160.189 221.056 L 160.189 221.056 L 160.189 221.056 L 160.189 221.056 L 160.189 221.056 Z  M 416 400 L 404.054 400 L 371.499 217.479 C 365.439 184.174 336.472 160 302.62 160 L 209.38 160 C 175.522 160 146.558 184.175 140.505 217.513 L 107.946 400 L 96 400 C 79.458 400 66 413.458 66 430 L 66 470 C 66 475.522 70.477 480 76 480 L 436 480 C 441.522 480 446 475.522 446 470 L 446 430 C 446 413.458 432.542 400 416 400 L 416 400 L 416 400 L 416 400 L 416 400 L 416 400 L 416 400 L 416 400 Z  M 256 0 C 250.478 0 246 4.478 246 10 L 246 90 C 246 95.522 250.478 100 256 100 C 261.522 100 266 95.522 266 90 L 266 10 C 266 4.478 261.522 0 256 0 Z " fill-rule="evenodd" /></svg>
