<svg xmlns="http://www.w3.org/2000/svg" xmlns:xlink="http://www.w3.org/1999/xlink" style="isolation:isolate" viewBox="0 0 318.571 354.965" width="318.571px" height="354.965px"><path d=" M 159.286 176.365 C 152.383 176.365 146.786 170.768 146.786 163.865 L 146.786 12.5 C 146.786 5.597 152.383 0 159.286 0 C 166.189 0 171.786 5.597 171.786 12.5 L 171.786 163.865 C 171.786 170.768 166.19 176.365 159.286 176.365 Z  M 159.286 354.965 C 71.455 354.965 0 283.509 0 195.68 C 0 160.556 11.209 127.249 32.417 99.36 C 52.932 72.381 82.054 52.299 114.417 42.815 C 121.042 40.866 127.986 44.67 129.928 51.294 C 131.869 57.919 128.073 64.863 121.448 66.805 C 64.66 83.449 24.999 136.443 24.999 195.68 C 24.999 269.725 85.239 329.965 159.285 329.965 C 233.33 329.965 293.571 269.725 293.571 195.68 C 293.571 136.443 253.91 83.449 197.122 66.805 C 190.497 64.864 186.701 57.919 188.643 51.294 C 190.583 44.669 197.528 40.868 204.154 42.815 C 236.518 52.299 265.638 72.381 286.154 99.36 C 307.362 127.25 318.571 160.556 318.571 195.68 C 318.573 283.509 247.117 354.965 159.286 354.965 Z " fill-rule="evenodd"/></svg>
