<?xml version="1.0" encoding="utf-8"?><svg xmlns="http://www.w3.org/2000/svg" xmlns:xlink="http://www.w3.org/1999/xlink"><symbol viewBox="0 0 600.088 156.796" id="symbol_appstore" xmlns="http://www.w3.org/2000/svg"><path d="M486.403 85.625c10.617 0 15.45 10.35 15.45 19.971 0 11.83-6.596 20.418-15.674 20.418h-.115c-8.949 0-15.448-8.443-15.448-20.077 0-10.109 4.884-20.312 15.787-20.312zM89.3 25.456C94.44 18.855 98.349 9.528 96.932 0c-8.4.579-18.231 5.924-23.971 12.893-5.208 6.328-9.508 15.712-7.833 24.831 9.172.284 18.661-5.195 24.172-12.268zm108.081 43.456c.895 3.481 1.86 7.097 3.102 11.004l7.141 20.683h-20.325l7.041-20.818a171.728 171.728 0 0 0 3.041-10.869zm64.876 17.166c10.522 0 15.23 9.746 15.23 19.403 0 12.456-6.008 20.195-15.678 20.195-6.601 0-12.312-4.493-13.904-10.952-.273-1-.418-2.325-.418-3.82v-9.491c0-.86.192-1.902.374-2.913.059-.323.123-.646.17-.959 1.76-6.752 7.602-11.463 14.226-11.463zm60.776 0c10.516 0 15.226 9.746 15.226 19.403 0 12.456-6.012 20.195-15.676 20.195-6.599 0-12.315-4.493-13.904-10.952-.274-1-.416-2.325-.416-3.82v-9.491c0-.865.189-1.912.376-2.924.058-.317.117-.635.17-.948 1.754-6.752 7.599-11.463 14.224-11.463zm79.075 3.06c-11.015-4.266-14.544-7.619-14.544-13.818 0-5.219 4.147-10.482 13.415-10.482 7.645 0 12.536 2.659 13.854 3.478l1 .617 3.331-9.849-.659-.385c-1.977-1.159-7.612-3.855-17.186-3.855-15.051 0-25.563 8.885-25.563 21.603 0 10.255 6.583 17.425 20.715 22.564 10.016 3.742 13.744 7.577 13.744 14.151 0 7.442-5.752 12.059-15.002 12.059-6.025 0-12.225-1.756-17.01-4.822l-1.024-.656-3.168 10.076.582.385c4.456 2.976 12.842 5.128 19.946 5.128 20.284 0 27.476-12.368 27.476-22.96 0-10.919-5.766-17.653-19.907-23.234zm-267.373 25.893c-3.683 8.162-5.446 11.805-10.186 19.018-6.617 10.074-15.94 22.615-27.492 22.72-10.268.095-12.903-6.682-26.836-6.605-13.931.076-16.841 6.724-27.11 6.631-11.553-.107-20.388-11.434-27.004-21.503-18.5-28.161-20.433-61.211-9.025-78.78 8.109-12.487 20.897-19.796 32.926-19.796 12.245 0 19.943 6.716 30.068 6.716 9.82 0 15.807-6.727 29.963-6.727 10.701 0 22.04 5.826 30.12 15.904-26.471 14.505-22.172 52.315 4.576 62.422zm308.525-50.92l-11.576 3.634v9.804h-8.473v9.432h8.473v28.894c0 6.985 1.336 11.879 4.087 14.974 2.637 2.891 6.692 4.483 11.418 4.483 4.462 0 7.631-.882 9.123-1.409l.661-.234-.565-9.449-1.132.347c-1.493.458-3.024.634-5.491.634-4.572 0-6.525-2.893-6.525-9.686V86.981h14.237v-9.432H443.26V64.111zm106.883 12.745l-.708-.18a11.317 11.317 0 0 0-2.935-.369c-6.175 0-11.715 3.636-14.797 9.501l-.347-8.259h-10.591l.068.992c.315 4.672.446 9.918.446 16.995l-.11 38.554h11.802v-30.077c0-1.638.112-3.187.325-4.576 1.331-7.224 6.207-11.893 12.417-11.893 1.208 0 2.159.099 3.167.199l1.263.129V76.856zm25.748 8.319c3.593 0 6.509 1.112 8.664 3.303 3.394 3.457 3.989 8.546 4.064 10.988h-26.916c1.096-6.815 5.358-14.291 14.188-14.291zm-249.92-8.868c-8.036 0-14.474 3.104-18.764 9.001l-.471-7.759h-10.791l.06.992c.32 4.839.455 10.154.455 17.792v60.126h11.803V128.4c3.661 4.381 9.504 6.932 16.128 6.932 6.897 0 13.253-2.701 17.892-7.603 5.161-5.464 7.89-13.317 7.89-22.701 0-8.291-2.372-15.46-6.86-20.727-4.393-5.156-10.55-7.994-17.342-7.994zM191.093 56.085l-26.5 78.005h12.135l7.912-23.952h25.659l8.136 23.952h12.47l-26.614-78.005h-13.198zm295.651 20.222c-16.513 0-28.044 12.326-28.044 29.964 0 17.112 11.159 29.061 27.14 29.061h.109c13.511 0 28.046-9.412 28.046-30.078 0-8.401-2.6-15.618-7.522-20.874-4.95-5.279-11.776-8.073-19.729-8.073zm-221.547 0c-8.038 0-14.476 3.104-18.762 9.001l-.471-7.759h-10.795l.064.992c.319 4.834.451 10.154.451 17.792v60.126h11.803V128.4c3.661 4.381 9.508 6.932 16.132 6.932 6.898 0 13.253-2.701 17.884-7.603 5.169-5.464 7.896-13.317 7.896-22.701 0-8.291-2.368-15.46-6.856-20.727-4.396-5.156-10.554-7.994-17.346-7.994zm311.479-.112c-15.711 0-26.684 12.554-26.684 30.529 0 17.308 10.916 28.496 27.815 28.496 8.885 0 15.068-1.951 18.685-3.584l.711-.322-2.268-8.793-.986.396c-3.216 1.309-7.492 2.645-14.785 2.645-5.128 0-16.953-1.691-17.677-17.112l38.093.115.153-.754c.24-1.199.355-2.815.355-4.926 0-12.312-6.131-26.69-23.412-26.69zM306.033 16.904q-2.207 0-3.223 1.358-1.016 1.357-1.055 4.482v.645q0 3.515 1.045 5.039 1.045 1.523 3.311 1.523 4.004 0 4.004-6.601 0-3.223-.987-4.834-.986-1.612-3.095-1.612zm119.808-.527q-1.894 0-2.969 1.201-1.074 1.201-1.23 3.408h8.359q-.039-2.207-1.152-3.408t-3.008-1.201zM246.994 12.51q0 2.754-1.954 4.551-1.953 1.797-5.293 2.285v.117q3.926.391 6.026 2.168 2.099 1.777 2.099 4.629 0 3.945-3.193 6.23-3.193 2.285-8.838 2.285-6.289 0-10.097-1.542v-5.079q1.835.879 4.306 1.377t4.619.498q7.207 0 7.207-4.199 0-1.894-2.314-2.91-2.315-1.016-6.846-1.016h-2.676v-4.726h2.403q4.531 0 6.601-.86 2.071-.859 2.071-2.851 0-1.465-1.299-2.334t-3.897-.869q-4.023 0-7.773 2.324l-2.637-4.043q2.442-1.621 5.176-2.373 2.734-.752 6.074-.752 4.668 0 7.451 1.953 2.784 1.953 2.784 5.137zm17.914 13.555v-1.797l-2.305.078q-2.598.078-3.867.937-1.27.86-1.27 2.617 0 2.52 2.891 2.52 2.07 0 3.31-1.191 1.241-1.192 1.241-3.164zm11.89-13.516h15.078v4.473h-9.121v17.363h-5.957V12.549zm189.059 15q0-1.289-.996-1.865-.996-.576-2.989-.576h-4.726v5.156h4.844q1.894 0 2.881-.713.986-.713.986-2.002zm-.547-8.809q0-1.992-3.164-1.992h-5v4.317h4.316q1.895 0 2.871-.547.977-.547.977-1.778zM326.345 34.229l-8.672-21.68h6.524l4.121 12.285q.527 1.602.722 3.789h.118q.214-2.012.839-3.789l4.043-12.285h6.387l-9.238 24.629q-1.27 3.418-3.623 5.117-2.354 1.699-5.498 1.699-1.543 0-3.028-.332v-4.726q1.075.254 2.344.254 1.582 0 2.764-.967 1.181-.967 1.846-2.92l.351-1.074zm20.695-13.282h2.188q3.379 0 4.795-.547 1.416-.546 1.416-1.738 0-1.054-1.035-1.582-1.035-.527-3.418-.527-1.504 0-3.408.371-1.905.371-3.467 1.016l-1.758-4.161q2.324-.879 4.512-1.259 2.187-.381 4.882-.381 4.082 0 6.543 1.562 2.461 1.563 2.461 4.239 0 3.691-4.355 4.804v.196q2.676.664 3.818 1.884 1.143 1.221 1.143 3.194 0 1.992-1.289 3.535-1.289 1.543-3.731 2.383-2.441.839-5.742.839-5.469 0-8.398-1.347v-4.922q1.679.781 3.681 1.23 2.002.45 3.877.45 2.91 0 4.356-.655 1.445-.654 1.445-1.865 0-1.328-1.523-1.963-1.524-.635-4.688-.635h-2.305v-4.121zm18.758-8.398h5.762v8.633q0 1.367-.449 6.679l10.078-15.312h7.168v21.836h-5.762v-8.711q0-2.324.391-6.563l-10.039 15.274h-7.149V12.549zm26.793 0h20.274v4.473h-7.149v17.363h-5.957V17.022h-7.168v-4.473zM307.79 34.775q-3.847 0-6.035-2.792h-.312q.312 2.734.312 3.164v8.847h-5.957V12.549h4.844l.84 2.832h.273q2.09-3.242 6.192-3.242 3.867 0 6.054 2.988 2.188 2.988 2.188 8.301 0 3.496-1.026 6.074-1.025 2.578-2.919 3.926-1.895 1.347-4.454 1.347zm-36.964-.39h-4.161l-1.152-2.969h-.156q-1.504 1.895-3.096 2.627-1.592.732-4.15.732-3.145 0-4.951-1.796-1.807-1.797-1.807-5.118 0-3.476 2.432-5.127 2.431-1.65 7.334-1.826l3.789-.117v-.957q0-3.32-3.399-3.32-2.617 0-6.152 1.582l-1.973-4.024q3.77-1.972 8.36-1.972 4.394 0 6.738 1.914 2.344 1.914 2.344 5.82v14.551zm155.855.39q-5.273 0-8.242-2.91-2.969-2.91-2.969-8.242 0-5.488 2.744-8.486t7.588-2.998q4.629 0 7.207 2.636 2.578 2.637 2.578 7.286v2.89h-14.082q.098 2.539 1.504 3.965 1.406 1.426 3.945 1.426 1.973 0 3.731-.41 1.758-.41 3.672-1.309v4.61q-1.563.781-3.34 1.162-1.777.38-4.336.38zm44.664-16.503q0 1.757-1.103 2.998-1.104 1.24-3.252 1.591v.157q2.324.273 3.681 1.591 1.358 1.319 1.358 3.252 0 3.184-2.5 4.854t-7.149 1.67h-11.191V12.549h11.191q4.492 0 6.729 1.455 2.236 1.455 2.236 4.268z" fill-rule="evenodd"/></symbol><symbol viewBox="0 0 64 64" id="symbol_close" xmlns="http://www.w3.org/2000/svg"><path d="M28.941 31.786L.613 60.114a2.014 2.014 0 1 0 2.848 2.849l28.541-28.541 28.541 28.541c.394.394.909.59 1.424.59a2.014 2.014 0 0 0 1.424-3.439L35.064 31.786 63.41 3.438A2.014 2.014 0 1 0 60.562.589L32.003 29.15 3.441.59A2.015 2.015 0 0 0 .593 3.439l28.348 28.347z"/></symbol><symbol viewBox="0 0 376.404 512" id="symbol_doc" xmlns="http://www.w3.org/2000/svg"><path d="M241.713 34.549L341.856 134.69h-78.582c-11.889 0-21.56-9.672-21.56-21.562V34.549h-.001zm27.438 222.463H107.253c-5.588 0-10.119 4.531-10.119 10.119s4.531 10.119 10.119 10.119h161.898c5.59 0 10.119-4.531 10.119-10.119s-4.529-10.119-10.119-10.119zm0 45.196H107.253c-5.588 0-10.119 4.531-10.119 10.119s4.531 10.119 10.119 10.119h161.898c5.59 0 10.119-4.531 10.119-10.119s-4.529-10.119-10.119-10.119zm0 45.196H107.253c-5.588 0-10.119 4.531-10.119 10.119s4.531 10.119 10.119 10.119h161.898c5.59 0 10.119-4.531 10.119-10.119s-4.529-10.119-10.119-10.119zM356.166 470.2c0 11.889-9.672 21.562-21.562 21.562H41.8c-11.889 0-21.562-9.673-21.562-21.562V41.8c0-11.889 9.673-21.562 21.562-21.562h179.674v92.892c0 23.049 18.75 41.8 41.799 41.8h92.893V470.2zm17.275-332.544L238.749 2.964A10.118 10.118 0 0 0 231.593 0H41.8C18.751 0 0 18.751 0 41.8v428.4C0 493.249 18.751 512 41.8 512h292.804c23.049 0 41.8-18.751 41.8-41.8V144.811a10.12 10.12 0 0 0-2.963-7.155zM216.534 392.601H107.253c-5.588 0-10.119 4.531-10.119 10.119s4.531 10.119 10.119 10.119h109.281c5.59 0 10.119-4.531 10.119-10.119s-4.529-10.119-10.119-10.119z" fill-rule="evenodd"/></symbol><symbol viewBox="0 0 51.969 96.123" id="symbol_facebook" xmlns="http://www.w3.org/2000/svg"><path d="M50.012.02L37.547 0C23.543 0 14.493 9.285 14.493 23.656v10.907H1.96A1.96 1.96 0 0 0 0 36.524v15.803a1.96 1.96 0 0 0 1.96 1.96h12.533v39.876a1.96 1.96 0 0 0 1.96 1.96h16.352a1.96 1.96 0 0 0 1.96-1.96V54.287h14.654a1.96 1.96 0 0 0 1.96-1.96l.006-15.803a1.963 1.963 0 0 0-1.961-1.961H34.765v-9.246c0-4.444 1.059-6.7 6.848-6.7l8.397-.003a1.96 1.96 0 0 0 1.959-1.96V1.98A1.96 1.96 0 0 0 50.012.02z"/></symbol><symbol viewBox="0 0 24.776 25.992" id="symbol_fleur" xmlns="http://www.w3.org/2000/svg"><path d="M13.756 17.822c0-.912.304-3.306 1.406-4.788 1.406-1.9 2.698-3.078 5.814-3.078 2.128 0 3.8 1.976 3.8 4.104s-1.368 4.408-2.85 5.282c0-2.508-1.026-4.066-3.8-4.066-1.748 0-3.002 1.254-3.002 2.546.798 0 1.634.494 1.634 1.482-.57-.342-1.064-.57-1.634-.57 0 .912.304 1.976 1.026 2.736.152-.76.456-1.368 1.064-1.368.722 0 1.406.798 1.406 1.672 0 .912-.532 1.634-1.444 1.634-1.52 0-3.116-1.938-3.268-4.674h-.76c0 .95.076 1.71.304 2.28.152.418.304.798.304 1.178 0 .532-.76 2.432-1.368 3.8-.608-1.368-1.368-3.268-1.368-3.8 0-.38.152-.76.304-1.178.228-.57.304-1.33.304-2.28h-.76c-.152 2.736-1.748 4.674-3.268 4.674-.912 0-1.444-.722-1.444-1.634 0-.874.684-1.672 1.406-1.672.608 0 .912.608 1.064 1.368.722-.76 1.026-1.824 1.026-2.736-.57 0-1.064.228-1.634.57 0-.988.836-1.482 1.634-1.482 0-1.292-1.254-2.546-3.002-2.546-2.774 0-3.8 1.558-3.8 4.066C1.368 18.468 0 16.188 0 14.06s1.672-4.104 3.8-4.104c3.116 0 4.408 1.178 5.814 3.078 1.102 1.482 1.406 3.876 1.406 4.788h.608c0-2.166-.988-4.332-1.976-6.194-.456-.874-.988-1.938-.988-2.888 0-1.14.532-2.394 1.292-3.762.722-1.33 1.748-3.306 2.432-4.978.684 1.672 1.71 3.648 2.432 4.978.76 1.368 1.292 2.622 1.292 3.762 0 .95-.532 2.014-.988 2.888-.988 1.862-1.976 4.028-1.976 6.194h.608z" fill-rule="evenodd"/></symbol><symbol viewBox="0 0 480 512" id="symbol_gasoline-pump" xmlns="http://www.w3.org/2000/svg"><path d="M256 208H128v-96h128v96zm32-112c0-8.837-7.163-16-16-16H112c-8.837 0-16 7.163-16 16v128c0 8.837 7.163 16 16 16h160c8.837 0 16-7.163 16-16V96zm64 384H32v-22.344l23.156-11.578A15.998 15.998 0 0 0 64 431.765v-368C64 46.117 79.115 32 96.764 32h192C306.412 32 320 46.117 320 63.766v368a15.998 15.998 0 0 0 8.844 14.313L352 457.656V480zm119.538-366.547l-63.809-32c-7.922-3.969-17.42-.742-21.373 7.156-3.953 7.906-.702 17.516 7.204 21.469l24.301 12.139c-.65 1.74-1.491 3.58-1.491 5.549 0 20.832 15.63 38.426 31.63 45.051v194.949c0 8.82-7.18 16-16 16s-16-7.18-16-16v-128c0-38.631-32-70.949-64-78.383V63.766C352 28.477 324.053 0 288.764 0h-192C61.475 0 32 28.477 32 63.766v358.109L8.844 433.453A15.998 15.998 0 0 0 0 447.766v48C0 504.602 7.928 512 16.764 512h352C377.6 512 384 504.602 384 495.766v-48a15.998 15.998 0 0 0-8.844-14.313L352 421.875v-227.16c16 6.625 32 24.219 32 45.051v128c0 26.469 21.531 48 48 48s48-21.531 48-48v-240c0-6.063-3.04-11.602-8.462-14.313z" fill-rule="evenodd"/></symbol><symbol viewBox="0 0 516 516" id="symbol_gear-loading" xmlns="http://www.w3.org/2000/svg"><path d="M475 291l-40 5c-7 1-14 6-16 13-6 17-4 12-11 27-3 7-2 15 2 21l25 31c-5 6-12 15-22 25s-18 17-24 22l-32-25c-6-4-14-5-21-2-17 8-9 5-27 11-7 2-12 9-13 16l-5 40c-8 1-19 2-33 2s-25-1-33-2l-5-40c-1-7-6-14-13-16-17-6-12-4-27-11-7-3-14-2-20 2l-32 25c-6-5-15-12-25-22s-16-18-21-24l24-32c4-6 5-14 2-21-8-15-5-10-11-27-2-7-9-12-16-13l-40-5c-1-8-2-19-2-33s1-25 2-33l40-5c7-1 14-6 16-13s5-13 5-14c0 0 3-7 6-13 3-7 2-14-2-20l-24-32c5-6 11-15 21-25s19-16 25-21l32 24c6 4 13 5 20 2 15-8 10-5 27-11 7-2 12-9 13-16l5-40c8-1 19-2 33-2s25 1 33 2l5 40c1 7 6 14 13 16 17 6 12 4 27 11 7 3 15 2 21-2l32-24c6 5 14 11 24 21s17 19 22 25l-25 32c-4 6-5 13-2 20 8 17 6 9 12 27 2 7 8 12 15 13l40 5c1 8 2 19 2 33s-1 25-2 33zm35-88c-2-8-8-13-16-14l-42-6c-2-6-1-3-4-9l26-34c5-6 5-15 1-22 0-1-11-18-35-42s-41-35-42-35c-7-4-16-4-22 1l-34 26c-6-3-3-2-9-4l-6-42c-1-8-6-14-14-16-1 0-21-6-55-6s-54 6-55 6c-8 2-13 8-14 16l-6 42c-6 2-3 1-9 4l-34-26c-6-5-15-5-22-1-1 0-18 11-42 35s-35 41-35 42c-4 7-4 16 1 22l26 34c-3 6-2 4-4 10l-42 5c-8 1-14 6-16 14 0 1-6 21-6 55s6 54 6 55c2 8 8 13 16 14l42 6c2 6 1 3 4 9l-26 34c-5 6-5 15-1 22 0 1 11 18 35 42s41 35 42 35c7 4 16 4 22-1l34-26c6 3 4 2 10 4l5 42c1 8 6 14 14 16 1 0 21 6 55 6s54-6 55-6c8-2 13-8 14-16l6-42c6-2 3-1 9-4l34 26c6 5 15 5 22 1 1 0 18-11 42-35s35-41 35-42c4-7 4-16-1-22l-26-34c3-6 2-3 4-9l42-6c8-1 14-6 16-14 0-1 6-21 6-55s-6-54-6-55zM258 342c-47 0-84-37-84-84s37-84 84-84 84 37 84 84-37 84-84 84zm0-207c-68 0-123 55-123 123s55 123 123 123 123-55 123-123-55-123-123-123z" fill-rule="evenodd"/></symbol><symbol viewBox="0 0 601.86 163.296" id="symbol_google-play" xmlns="http://www.w3.org/2000/svg"><path d="M432.216 77.747v6.045h-.733v-6.045h-2v-.625h4.732v.625h-1.999zm-82.055 44.763c-.733-.096-1.196-.096-2.11-.096-.827 0-5.795.186-9.651 1.477-2.021.729-7.904 2.935-7.904 9.463 0 6.52 6.344 11.214 16.177 11.214 8.816 0 13.508-4.236 13.508-9.929 0-4.695-3.033-7.167-10.02-12.129zm186.664-5.642c4.142 0 7.394-1.134 9.762-3.405 2.362-2.271 3.548-5.452 3.548-9.544v-3.967l-6.658.279c-5.29.189-9.102 1.009-11.444 2.468-2.337 1.456-3.506 3.721-3.506 6.795 0 2.404.726 4.236 2.184 5.489 1.457 1.259 3.493 1.885 6.114 1.885zm23.826-39.244h7.132l9.621 25.055c2.111 5.72 3.421 9.847 3.931 12.388h.32c.348-1.367 1.077-3.696 2.184-6.999 1.109-3.301 4.738-13.446 10.882-30.444h7.139l-18.883 50.027c-1.87 4.944-4.054 8.452-6.556 10.527-2.497 2.069-5.565 3.102-9.197 3.102-2.032 0-4.036-.226-6.015-.68v-5.33c1.468.32 3.114.481 4.932.481 4.57 0 7.828-2.564 9.782-7.697l2.444-6.252-17.716-44.178zm-207.823 27.423c2.111-2.116 2.292-5.053 2.292-6.709 0-6.615-3.949-16.907-11.575-16.907-2.392 0-4.961 1.193-6.433 3.035-1.56 1.929-2.023 4.406-2.023 6.798 0 6.156 3.584 16.358 11.491 16.358 2.296 0 4.772-1.103 6.248-2.575zM513.6 121.558h-6.653V59.184h6.653v62.374zm-34.609-39.084c-4.49 0-7.735 1.244-9.739 3.728-2.004 2.486-3.035 6.441-3.089 11.868v1.481c0 6.175 1.03 10.591 3.089 13.251 2.059 2.658 5.359 3.986 9.9 3.986 3.796 0 6.771-1.536 8.923-4.608 2.149-3.072 3.225-7.309 3.225-12.71 0-5.476-1.076-9.68-3.225-12.607-2.152-2.927-5.182-4.389-9.084-4.389zm-168.688 31.134c2.205-2.938 2.756-6.606 2.756-10.188 0-8.074-3.852-23.486-15.231-23.486-3.025 0-6.053 1.196-8.255 3.125-3.578 3.207-4.224 7.244-4.224 11.195 0 9.076 4.496 24.026 15.6 24.026 3.578 0 7.248-1.74 9.354-4.672zm-49.724 0c2.201-2.938 2.753-6.606 2.753-10.188 0-8.074-3.855-23.486-15.233-23.486-3.024 0-6.055 1.196-8.255 3.125-3.579 3.207-4.22 7.244-4.22 11.195 0 9.076 4.493 24.026 15.599 24.026 3.578 0 7.246-1.74 9.356-4.672zm-40.866 5.992l-13.19 3.044c-5.352.832-10.147 1.564-15.218 1.564-25.461 0-35.142-18.725-35.142-33.392 0-17.892 13.741-34.49 37.265-34.49 4.983 0 9.775.736 14.109 1.936 6.919 1.937 10.146 4.333 12.176 5.718l-7.657 7.287-3.227.735 2.306-3.691c-3.135-3.041-8.858-8.667-19.738-8.667-14.576 0-25.553 11.074-25.553 27.215 0 17.335 12.547 33.663 32.651 33.663 5.909 0 8.946-1.199 11.716-2.308v-14.848l-13.926.737 7.375-3.969h19.556l-2.396 2.304c-.649.556-.739.742-.924 1.474-.096.832-.183 3.508-.183 4.431V119.6zm195.054-29.109c1.737-.639 2.654-1.189 2.654-2.471 0-3.661-4.12-7.878-9.07-7.878-3.668 0-10.534 2.841-10.534 12.732 0 1.557.183 3.206.279 4.86l16.671-7.243zm-28.926 26.453c-3.045-.277-3.682-.828-3.682-4.429V60.308c.018-.198.032-.401.05-.594.372-3.227 1.292-3.78 4.156-5.443h-13.196l-6.92 3.321h7.052v.043l-.005-.035v56.946c0 1.841-.364 2.121-2.488 4.885h16.328l3.412-2.023c-1.565-.19-3.136-.28-4.707-.464zm54.615-33.152v-6.1h-.033l-1.863 6.1h-.573l-1.879-6.1h-.023v6.1h-.666v-6.67h1.142l1.7 5.392h.023l1.673-5.392h1.159v6.67h-.66zM5.338 163.296l62.325-34.331 26.903-15.531-18.821-18.195-70.407 68.057zm91.085-94.923L67.555 51.708 4.288 19.287l71.457 69.077 20.678-19.991zm30.685 17.71l-26.233-15.137L79.3 91.801l19.718 19.061 28.09-16.213a4.893 4.893 0 0 0 2.472-4.282 4.9 4.9 0 0 0-2.472-4.284zm-127.041-64L0 161.583 72.189 91.8.067 22.083zm479.886 100.276c-2.86 0-5.472-.527-7.836-1.581-2.364-1.056-4.35-2.68-5.954-4.87h-.48c.32 2.564.48 4.998.48 7.294v18.078h-6.651V77.624h5.411l.92 6.012h.32c1.713-2.405 3.705-4.141 5.976-5.21 2.27-1.068 4.877-1.604 7.814-1.604 5.827 0 10.324 1.992 13.49 5.974 3.166 3.982 4.752 9.567 4.752 16.755 0 7.216-1.611 12.82-4.828 16.819-3.223 3.993-7.692 5.989-13.414 5.989zm-56.578-4.567c-1.004.551-2.012 1.195-3.016 1.65-3.03 1.373-6.143 1.741-8.895 1.741-2.924 0-7.508-.189-12.184-3.575-6.499-4.582-9.339-12.461-9.339-19.329 0-14.197 11.543-21.157 20.978-21.157 3.297 0 6.69.822 9.44 2.566 4.574 3.016 5.766 6.955 6.404 9.063l-21.522 8.707-7.054.549c2.286 11.632 10.164 18.407 18.869 18.407 4.671 0 8.061-1.647 11.175-3.202l-4.856 4.58zm-174.266 3.246c-14.588 0-22.386-11.378-22.386-21.655 0-12.02 9.818-22.291 23.764-22.291 13.485 0 21.925 10.547 21.925 21.652 0 10.822-8.347 22.294-23.303 22.294zm302.748.52l-1.324-6.255h-.321c-2.191 2.756-4.376 4.62-6.555 5.593-2.176.978-4.896 1.463-8.156 1.463-4.354 0-7.769-1.121-10.241-3.367-2.473-2.245-3.709-5.436-3.709-9.578 0-8.872 7.097-13.522 21.285-13.951l7.459-.241v-2.726c0-3.448-.743-5.994-2.227-7.636-1.481-1.645-3.857-2.465-7.115-2.465-3.662 0-7.805 1.123-12.426 3.367l-2.046-5.091c2.167-1.176 4.536-2.097 7.118-2.765a30.796 30.796 0 0 1 7.756-1.003c5.237 0 9.118 1.161 11.645 3.487 2.524 2.325 3.787 6.053 3.787 11.185v29.983h-4.93zm-253.021-.52c-14.585 0-22.384-11.378-22.384-21.655 0-12.02 9.815-22.291 23.765-22.291 13.482 0 21.923 10.547 21.923 21.652 0 10.822-8.345 22.294-23.304 22.294zm57.852-39.332c2.112 1.748 6.521 5.421 6.521 12.408 0 6.796-3.858 10.018-7.72 13.046-1.194 1.194-2.572 2.484-2.572 4.508 0 2.018 1.378 3.122 2.392 3.95l3.31 2.568c4.042 3.4 7.714 6.526 7.714 12.87 0 8.636-8.362 17.364-24.165 17.364-13.327 0-19.756-6.338-19.756-13.142 0-3.308 1.647-7.991 7.075-11.211 5.693-3.492 13.418-3.947 17.552-4.229-1.291-1.652-2.759-3.399-2.759-6.243 0-1.56.461-2.48.92-3.588-1.015.093-2.024.185-2.944.185-9.737 0-15.252-7.261-15.252-14.425 0-4.228 1.932-8.916 5.879-12.313 5.24-4.319 11.489-5.056 16.454-5.056h18.927l-5.883 3.308h-5.693zm-13.059-70.222q-2.207 0-3.223 1.358-1.015 1.357-1.054 4.482v.645q0 3.515 1.044 5.039 1.045 1.523 3.311 1.523 4.004 0 4.004-6.601 0-3.223-.986-4.834-.987-1.612-3.096-1.612zm119.809-.527q-1.895 0-2.969 1.201-1.074 1.201-1.231 3.408h8.36q-.039-2.207-1.153-3.408-1.113-1.201-3.007-1.201zM284.59 7.09q0 2.754-1.953 4.551-1.953 1.797-5.293 2.285v.117q3.926.391 6.025 2.168 2.1 1.777 2.1 4.629 0 3.945-3.194 6.23-3.193 2.285-8.837 2.285-6.29 0-10.098-1.543v-5.078q1.836.879 4.306 1.377 2.471.498 4.62.498 7.207 0 7.207-4.199 0-1.894-2.315-2.91-2.314-1.016-6.845-1.016h-2.676v-4.726h2.402q4.531 0 6.602-.86 2.07-.859 2.07-2.851 0-1.465-1.299-2.334t-3.896-.869q-4.024 0-7.774 2.324l-2.637-4.043q2.442-1.621 5.176-2.373Q271.016 0 274.355 0q4.668 0 7.452 1.953 2.783 1.953 2.783 5.137zm17.914 13.555v-1.797l-2.305.078q-2.597.078-3.867.937-1.269.86-1.269 2.617 0 2.52 2.89 2.52 2.07 0 3.311-1.191 1.24-1.192 1.24-3.164zm11.891-13.516h15.078v4.473h-9.121v17.363h-5.957V7.129zm189.058 15q0-1.289-.996-1.865-.996-.576-2.988-.576h-4.727v5.156h4.844q1.894 0 2.881-.713.986-.713.986-2.002zm-.547-8.809q0-1.992-3.164-1.992h-5v4.317h4.317q1.894 0 2.871-.547.976-.547.976-1.778zM363.941 28.809l-8.671-21.68h6.523l4.121 12.285q.527 1.602.723 3.789h.117q.215-2.012.84-3.789l4.043-12.285h6.386l-9.238 24.629q-1.269 3.418-3.623 5.117-2.353 1.699-5.498 1.699-1.543 0-3.027-.332v-4.726q1.074.254 2.343.254 1.583 0 2.764-.967 1.182-.967 1.846-2.92l.351-1.074zm20.696-13.282h2.187q3.379 0 4.795-.547 1.416-.546 1.416-1.738 0-1.054-1.035-1.582-1.035-.527-3.418-.527-1.504 0-3.408.371t-3.467 1.016l-1.758-4.161q2.324-.879 4.512-1.259 2.187-.381 4.883-.381 4.082 0 6.543 1.562 2.461 1.563 2.461 4.239 0 3.691-4.356 4.804v.196q2.676.664 3.819 1.884 1.142 1.221 1.142 3.194 0 1.992-1.289 3.535-1.289 1.543-3.73 2.383-2.442.839-5.743.839-5.468 0-8.398-1.347v-4.922q1.68.781 3.682 1.23 2.002.45 3.877.45 2.91 0 4.355-.655 1.445-.654 1.445-1.865 0-1.328-1.523-1.963-1.524-.635-4.688-.635h-2.304v-4.121zm18.758-8.398h5.761v8.633q0 1.367-.449 6.679l10.078-15.312h7.168v21.836h-5.762v-8.711q0-2.324.391-6.563l-10.039 15.274h-7.148V7.129zm26.793 0h20.273v4.473h-7.148v17.363h-5.958V11.602h-7.167V7.129zm-84.801 22.226q-3.848 0-6.035-2.793h-.313q.313 2.735.313 3.165v8.847h-5.957V7.129h4.843l.84 2.832h.274q2.089-3.242 6.191-3.242 3.867 0 6.055 2.988 2.187 2.988 2.187 8.301 0 3.496-1.025 6.074-1.026 2.578-2.92 3.926-1.895 1.347-4.453 1.347zm-36.965-.39h-4.16l-1.153-2.969h-.156q-1.504 1.895-3.096 2.627-1.591.732-4.15.732-3.144 0-4.951-1.796-1.807-1.797-1.807-5.118 0-3.476 2.432-5.127 2.432-1.65 7.334-1.826l3.789-.117v-.957q0-3.32-3.399-3.32-2.617 0-6.152 1.582l-1.973-4.024q3.77-1.972 8.36-1.972 4.394 0 6.738 1.914 2.344 1.914 2.344 5.82v14.551zm155.855.39q-5.273 0-8.242-2.91-2.969-2.91-2.969-8.242 0-5.488 2.745-8.486 2.744-2.998 7.587-2.998 4.629 0 7.207 2.636 2.579 2.637 2.579 7.286v2.89h-14.082q.097 2.539 1.503 3.965 1.407 1.426 3.946 1.426 1.972 0 3.73-.41t3.672-1.309v4.609q-1.562.782-3.34 1.163-1.777.38-4.336.38zm44.664-16.503q0 1.757-1.103 2.998-1.104 1.24-3.252 1.591v.157q2.324.273 3.682 1.591 1.357 1.319 1.357 3.252 0 3.184-2.5 4.854t-7.148 1.67h-11.192V7.129h11.192q4.492 0 6.728 1.455 2.236 1.455 2.236 4.268z" fill-rule="evenodd"/></symbol><symbol viewBox="0 0 79 60" id="symbol_hexbordered" xmlns="http://www.w3.org/2000/svg"><path d="M77.644 27.975c.731 1.369.958 2.419.094 3.909q-.863 1.491-8.613 12.864-7.888 12.167-8.835 13.194c-.946 1.027-1.602 1.425-3.29 1.554q-1.688.129-17.5 0-15.875.058-17.469 0c-1.594-.058-2.409-.541-3.36-1.612q-.952-1.071-8.796-13.136-7.711-11.189-8.652-12.922c-.942-1.732-.746-2.337.047-3.722q.792-1.385 8.605-12.852Q17.512 3.413 18.6 2.222C19.688 1.031 20.437.633 21.938.504q1.5-.129 17.562 0 15.062-.152 17.5 0c2.437.152 2.456.565 3.337 1.624q.882 1.059 8.788 13.124 7.788 11.354 8.519 12.723zm-.95.053c.712 1.333.932 2.355.092 3.807q-.841 1.451-8.387 12.524-7.68 11.847-8.602 12.847c-.921 1-1.56 1.387-3.203 1.513q-1.643.126-17.039 0-15.457.057-17.009 0c-1.552-.057-2.345-.527-3.272-1.57q-.927-1.043-8.564-12.79-7.508-10.894-8.424-12.581c-.917-1.687-.727-2.276.045-3.625q.772-1.348 8.379-12.513 7.436-11.527 8.495-12.687c1.059-1.159 1.789-1.546 3.25-1.672q1.46-.126 17.1 0 14.665-.148 17.039 0c2.373.148 2.391.55 3.249 1.581q.858 1.031 8.556 12.778 7.584 11.056 8.295 12.388z" fill-rule="evenodd"/></symbol><symbol viewBox="0 0 79 60" id="symbol_hexsolid" xmlns="http://www.w3.org/2000/svg"><path d="M77.644 27.975c.731 1.369.958 2.419.094 3.909q-.863 1.491-8.613 12.864-7.888 12.167-8.835 13.194c-.946 1.027-1.602 1.425-3.29 1.554q-1.687.129-17.5 0-15.875.058-17.469 0c-1.593-.058-2.409-.541-3.36-1.612q-.952-1.071-8.796-13.136-7.711-11.189-8.652-12.922c-.942-1.732-.746-2.337.047-3.722q.792-1.385 8.605-12.852Q17.512 3.413 18.6 2.222C19.688 1.031 20.438.633 21.938.504q1.5-.129 17.562 0 15.063-.152 17.5 0c2.438.152 2.456.565 3.337 1.624q.882 1.06 8.788 13.124 7.788 11.354 8.519 12.723z"/></symbol><symbol viewBox="0 0 256 256" id="symbol_instagramm" xmlns="http://www.w3.org/2000/svg"><path d="M128 23.064c34.177 0 38.225.13 51.722.745 12.48.57 19.258 2.655 23.769 4.408 5.974 2.322 10.238 5.096 14.717 9.575 4.48 4.479 7.253 8.743 9.575 14.717 1.753 4.511 3.838 11.289 4.408 23.768.615 13.498.745 17.546.745 51.723 0 34.178-.13 38.226-.745 51.723-.57 12.48-2.655 19.257-4.408 23.768-2.322 5.974-5.096 10.239-9.575 14.718-4.479 4.479-8.743 7.253-14.717 9.574-4.511 1.753-11.289 3.839-23.769 4.408-13.495.616-17.543.746-51.722.746-34.18 0-38.228-.13-51.723-.746-12.48-.57-19.257-2.655-23.768-4.408-5.974-2.321-10.239-5.095-14.718-9.574-4.479-4.48-7.253-8.744-9.574-14.718-1.753-4.51-3.839-11.288-4.408-23.768-.616-13.497-.746-17.545-.746-51.723 0-34.177.13-38.225.746-51.722.57-12.48 2.655-19.258 4.408-23.769 2.321-5.974 5.095-10.238 9.574-14.717 4.48-4.48 8.744-7.253 14.718-9.575 4.51-1.753 11.288-3.838 23.768-4.408 13.497-.615 17.545-.745 51.723-.745M128 0C93.237 0 88.878.147 75.226.77c-13.625.622-22.93 2.786-31.071 5.95-8.418 3.271-15.556 7.648-22.672 14.764C14.367 28.6 9.991 35.738 6.72 44.155 3.555 52.297 1.392 61.602.77 75.226.147 88.878 0 93.237 0 128c0 34.763.147 39.122.77 52.774.622 13.625 2.785 22.93 5.95 31.071 3.27 8.417 7.647 15.556 14.763 22.672 7.116 7.116 14.254 11.492 22.672 14.763 8.142 3.165 17.446 5.328 31.07 5.95 13.653.623 18.012.77 52.775.77s39.122-.147 52.774-.77c13.624-.622 22.929-2.785 31.07-5.95 8.418-3.27 15.556-7.647 22.672-14.763 7.116-7.116 11.493-14.254 14.764-22.672 3.164-8.142 5.328-17.446 5.95-31.07.623-13.653.77-18.012.77-52.775s-.147-39.122-.77-52.774c-.622-13.624-2.786-22.929-5.95-31.07-3.271-8.418-7.648-15.556-14.764-22.672C227.4 14.368 220.262 9.99 211.845 6.72c-8.142-3.164-17.447-5.328-31.071-5.95C167.122.147 162.763 0 128 0zm0 62.27c-36.302 0-65.73 29.43-65.73 65.73 0 36.302 29.428 65.73 65.73 65.73 36.301 0 65.73-29.428 65.73-65.73 0-36.301-29.429-65.73-65.73-65.73zm0 108.397c-23.564 0-42.667-19.103-42.667-42.667S104.436 85.333 128 85.333s42.667 19.103 42.667 42.667-19.103 42.667-42.667 42.667zm83.686-110.994c0 8.484-6.876 15.36-15.36 15.36-8.483 0-15.36-6.876-15.36-15.36 0-8.483 6.877-15.36 15.36-15.36 8.484 0 15.36 6.877 15.36 15.36z"/></symbol><symbol viewBox="0 0 7.42 14.42" id="symbol_left-arr" xmlns="http://www.w3.org/2000/svg"><path d="M7.392 7.21l.028.03-.355.326L1.08 14.05l-.34.37-.74-.68.34-.37 5.686-6.16L.34 1.05 0 .68.74 0l.34.37 5.985 6.484.355.326-.028.03z"/></symbol><symbol viewBox="0 0 31.495 22.141" id="symbol_left-arrow" xmlns="http://www.w3.org/2000/svg"><path d="M10.274.333a1.112 1.112 0 0 1 1.587 0 1.12 1.12 0 0 1 0 1.571L3.814 9.951h26.554c.619 0 1.127.492 1.127 1.111s-.508 1.127-1.127 1.127H3.814l8.047 8.032c.429.444.429 1.159 0 1.587a1.112 1.112 0 0 1-1.587 0L.322 11.856a1.12 1.12 0 0 1 0-1.571L10.274.333z"/></symbol><symbol viewBox="0 0 430.117 430.117" id="symbol_linked-in" xmlns="http://www.w3.org/2000/svg"><path d="M430.117 261.543V420.56h-92.188V272.193c0-37.271-13.334-62.707-46.703-62.707-25.473 0-40.632 17.142-47.301 33.724-2.432 5.928-3.058 14.179-3.058 22.477V420.56h-92.219s1.242-251.285 0-277.32h92.21v39.309c-.187.294-.43.611-.606.896h.606v-.896c12.251-18.869 34.13-45.824 83.102-45.824 60.673-.001 106.157 39.636 106.157 124.818zM52.183 9.558C20.635 9.558 0 30.251 0 57.463c0 26.619 20.038 47.94 50.959 47.94h.616c32.159 0 52.159-21.317 52.159-47.94-.606-27.212-20-47.905-51.551-47.905zM5.477 420.56h92.184V143.24H5.477v277.32z"/></symbol><symbol viewBox="0 0 333.668 491.582" id="symbol_location-pin" xmlns="http://www.w3.org/2000/svg"><path d="M243.345 331.576c-31.685 56.775-62.696 103.869-64.003 105.848l-12.508 18.959-12.504-18.954c-1.314-1.995-32.563-49.511-64.007-105.853C46.978 253.9 25 198.472 25 166.833 25 88.626 88.626 25 166.834 25s141.834 63.626 141.834 141.833c0 31.643-21.978 87.069-65.323 164.743zM166.834 0C74.842 0 0 74.841 0 166.833 0 203.8 21.764 260.02 68.493 343.759c31.887 57.138 63.627 105.4 64.966 107.433l22.941 34.773a12.497 12.497 0 0 0 20.868 0l22.94-34.771c1.326-2.01 32.835-49.855 64.967-107.435 46.729-83.735 68.493-139.955 68.493-176.926C333.668 74.841 258.826 0 166.834 0zm0 233.291c-37.22 0-67.5-30.28-67.5-67.5s30.28-67.5 67.5-67.5c37.221 0 67.5 30.28 67.5 67.5s-30.279 67.5-67.5 67.5zm0-160c-51.005 0-92.5 41.496-92.5 92.5s41.495 92.5 92.5 92.5 92.5-41.496 92.5-92.5-41.495-92.5-92.5-92.5z" fill-rule="evenodd"/></symbol><symbol viewBox="0 0 455 455" id="symbol_plus" xmlns="http://www.w3.org/2000/svg"><path d="M455 212.5H242.5V0h-30v212.5H0v30h212.5V455h30V242.5H455v-30z"/></symbol><symbol viewBox="0 0 31.49 22.142" id="symbol_right-arrow" xmlns="http://www.w3.org/2000/svg"><path d="M21.205.333a1.112 1.112 0 0 0-1.587 0 1.12 1.12 0 0 0 0 1.571l8.047 8.047H1.111A1.106 1.106 0 0 0 0 11.063c0 .619.492 1.127 1.111 1.127h26.554l-8.047 8.032c-.429.444-.429 1.159 0 1.587a1.112 1.112 0 0 0 1.587 0l9.952-9.952a1.093 1.093 0 0 0 0-1.571L21.205.333z"/></symbol><symbol viewBox="0 0 490 490" id="symbol_search" xmlns="http://www.w3.org/2000/svg"><path d="M484 455.2L366.2 337.4c29.2-35.6 46.8-81.2 46.8-130.9C413 92.5 320.5 0 206.5 0 92.4 0 0 92.5 0 206.5S92.4 413 206.5 413c49.7 0 95.2-17.5 130.8-46.7L455.1 484c8 8 20.9 8 28.9 0 8-7.9 8-20.9 0-28.8zm-277.5-83.3C115.2 371.9 41 297.7 41 206.5S115.2 41 206.5 41C297.7 41 372 115.3 372 206.5s-74.3 165.4-165.5 165.4z"/></symbol><symbol viewBox="0 0 22.926 58.18" id="symbol_slider-arrow-left" xmlns="http://www.w3.org/2000/svg"><path d="M0 29.09l19.606 27.86.87 1.23 2.45-1.73-.86-1.22L3.671 29.09 22.066 2.95l.86-1.22L20.476 0l-.87 1.23L0 29.09z"/></symbol><symbol viewBox="0 0 22.926 58.18" id="symbol_slider-arrow-right" xmlns="http://www.w3.org/2000/svg"><path d="M22.926 29.09L3.32 56.95l-.87 1.23L0 56.45l.86-1.22 18.395-26.14L.86 2.95 0 1.73 2.45 0l.87 1.23 19.606 27.86z"/></symbol><symbol viewBox="0 0 512 512" id="symbol_speedometer" xmlns="http://www.w3.org/2000/svg"><path d="M90.684 241c3.109-34.523 16.824-66.035 37.867-91.234l20.383 20.382 21.214-21.214-20.382-20.383c25.199-21.043 56.711-34.758 91.234-37.867V120h30V90.684c34.523 3.109 66.035 16.824 91.234 37.867l-20.382 20.383 21.214 21.214 20.383-20.382c21.039 25.199 34.758 56.711 37.867 91.234H392v29.988h29.309c-3.266 36.141-18.235 70.442-42.438 97.09C341.492 344.016 298.461 332 256 332c-42.371 0-85.414 11.965-122.871 36.078C108.926 341.43 93.957 307.137 90.691 271H120v-30H90.684zM256 30c124.617 0 226 101.383 226 226 0 57.816-21.832 110.621-57.676 150.633a224.524 224.524 0 0 0-21.265-20.61C434.328 350.492 452 304 452 256c0-107.637-88.352-196-196-196-107.637 0-196 88.352-196 196 0 48 17.672 94.492 48.941 130.023a224.524 224.524 0 0 0-21.265 20.61C51.832 366.621 30 313.816 30 256 30 131.383 131.383 30 256 30zm-45 362h90v30h-90v-30zm-101.859 35.633C145.98 386.313 199.859 362 256 362c56.141 0 110.02 24.313 146.859 65.633C363.332 461.504 312.016 482 256 482c-56.016 0-107.332-20.496-146.859-54.367zM256 512c140.961 0 256-115.051 256-256C512 115.039 396.949 0 256 0 115.039 0 0 115.051 0 256c0 140.961 115.051 256 256 256zm8.422-268.418A14.908 14.908 0 0 1 271 256c0 8.27-6.73 15-15 15a14.908 14.908 0 0 1-12.418-6.578l-17.367-38.211 38.207 17.371zm-46.863 35.816C225.801 292.926 240.172 301 256 301c24.813 0 45-20.187 45-45 0-15.828-8.074-30.199-21.602-38.441l-.773-.473-112.84-51.297 51.301 112.836.473.773z" fill-rule="evenodd"/></symbol><symbol viewBox="0 0 487.222 465.2" id="symbol_star" xmlns="http://www.w3.org/2000/svg"><path d="M486.554 175.8c-1.6-4.9-5.8-8.4-10.9-9.2l-152-21.6-68.4-137.5c-2.3-4.6-7-7.5-12.1-7.5s-9.8 2.9-12.1 7.6l-67.5 137.9-152 22.6c-5.1.8-9.3 4.3-10.9 9.2-1.6 4.9-.2 10.3 3.5 13.8l110.3 106.9-25.5 151.4c-.9 5.1 1.2 10.2 5.4 13.2 2.3 1.7 5.1 2.6 7.9 2.6 2.2 0 4.3-.5 6.3-1.6l135.7-71.9 136.1 71.1c2 1 4.1 1.5 6.2 1.5 7.4 0 13.5-6.1 13.5-13.5 0-1.1-.1-2.1-.4-3.1l-26.3-150.5 109.6-107.5c3.9-3.6 5.2-9 3.6-13.9zm-137 107.1c-3.2 3.1-4.6 7.6-3.8 12l22.9 131.3-118.2-61.7c-3.9-2.1-8.6-2-12.6 0l-117.8 62.4 22.1-131.5c.7-4.4-.7-8.8-3.9-11.9l-95.6-92.8 131.9-19.6c4.4-.7 8.2-3.4 10.1-7.4l58.6-119.7 59.4 119.4c2 4 5.8 6.7 10.2 7.4l132 18.8-95.3 93.3z"/></symbol><symbol viewBox="0 0 487.222 465.2" id="symbol_star-filled" xmlns="http://www.w3.org/2000/svg"><path d="M486.554 175.8c-1.6-4.9-5.8-8.4-10.9-9.2l-152-21.6-68.4-137.5c-2.3-4.6-7-7.5-12.1-7.5s-9.8 2.9-12.1 7.6l-67.5 137.9-152 22.6c-5.1.8-9.3 4.3-10.9 9.2-1.6 4.9-.2 10.3 3.5 13.8l110.3 106.9-25.5 151.4c-.9 5.1 1.2 10.2 5.4 13.2 2.3 1.7 5.1 2.6 7.9 2.6 2.2 0 4.3-.5 6.3-1.6l135.7-71.9 136.1 71.1c2 1 4.1 1.5 6.2 1.5 7.4 0 13.5-6.1 13.5-13.5 0-1.1-.1-2.1-.4-3.1l-26.3-150.5 109.6-107.5c3.9-3.6 5.2-9 3.6-13.9z"/></symbol><symbol viewBox="0 0 512.001 416.09" id="symbol_twitter" xmlns="http://www.w3.org/2000/svg"><path d="M512.001 49.255c-18.84 8.354-39.082 14.001-60.33 16.54 21.686-13 38.342-33.585 46.186-58.115a210.29 210.29 0 0 1-66.705 25.49C411.992 12.755 384.691 0 354.478 0c-58.011 0-105.042 47.029-105.042 105.039 0 8.233.929 16.25 2.72 23.939-87.3-4.382-164.701-46.2-216.509-109.753-9.042 15.514-14.223 33.558-14.223 52.809 0 36.444 18.544 68.596 46.73 87.433a104.614 104.614 0 0 1-47.577-13.139c-.01.438-.01.878-.01 1.321 0 50.894 36.209 93.348 84.261 103a105.245 105.245 0 0 1-27.674 3.687c-6.769 0-13.349-.66-19.764-1.888 13.368 41.73 52.16 72.104 98.126 72.949-35.95 28.176-81.243 44.967-130.458 44.967-8.479 0-16.84-.496-25.058-1.471C46.486 398.7 101.701 416.09 161.021 416.09c193.211 0 298.868-160.062 298.868-298.872 0-4.554-.104-9.084-.305-13.59 20.526-14.809 38.335-33.309 52.417-54.373z"/></symbol><symbol viewBox="0 0 107 107" id="symbol_user" xmlns="http://www.w3.org/2000/svg"><path d="M83.51 91.591l-.2-.311c-.62-.99-1.31-1.93-2.06-2.82-.68-.82-1.41-1.58-2.19-2.29-.75-.68-1.54-1.3-2.37-1.87-.82-.56-1.68-1.07-2.58-1.51-1.51-.74-3.11-1.29-4.76-1.63a34.66 34.66 0 0 0-4.04-.54c-.7-.05-1.4-.12-2.1-.22-.71-.09-1.4-.29-2.05-.59-.53-.25-1.04-.53-1.53-.84-.44-.27-.84-.6-1.2-.97a5.41 5.41 0 0 1-.83-1.19 8.507 8.507 0 0 1-.66-1.73c-.05-.23-.09-.46-.12-.69-.08-.6-.1-1.2-.07-1.81.05-1.04.15-2.09.31-3.13.27-.65.6-1.28 1-1.87.33-.49.71-.94 1.13-1.36.42-.42.87-.8 1.37-1.14.51-.34 1.05-.65 1.61-.9.74-.34 1.44-.75 2.1-1.23.88-.61 1.7-1.3 2.46-2.05.8-.78 1.51-1.65 2.12-2.59.55-.84.96-1.78 1.2-2.76.22-1.03.39-2.06.51-3.11.18-1.47.33-2.95.45-4.43.27-3.16.41-6.34.42-9.52.01-1.07-.02-2.14-.1-3.21-.02-.37-.06-.74-.12-1.11-.02-.19-.06-.38-.12-.57-.29-.89-.64-1.77-1.04-2.63-.53-1.12-1.17-2.17-1.93-3.15-.86-1.12-1.89-2.1-3.05-2.9-1.052-.714-.914-.795-3.417-1.665-2.503-.869-4.749-.992-5.363-1.065a26.384 26.384 0 0 0-2.502-.169c-.045.003-1.939.074-2.768.169-.614.073-1.227.161-1.835.273-.521.113-4.529.537-6.945 2.457-2.416 1.92-2.19 1.78-3.05 2.9-.76.98-1.4 2.03-1.93 3.15-.4.86-.75 1.74-1.04 2.63-.06.19-.1.38-.12.57-.06.37-.1.74-.12 1.11-.08 1.07-.11 2.14-.1 3.21.01 3.18.15 6.36.42 9.52.12 1.48.27 2.96.45 4.43.12 1.05.29 2.08.51 3.11.24.98.65 1.92 1.2 2.76.61.94 1.32 1.81 2.12 2.59.76.75 1.58 1.44 2.46 2.05.66.48 1.36.89 2.1 1.23.56.25 1.1.56 1.61.9.5.34.95.72 1.37 1.14.42.42.8.87 1.13 1.36.4.59.73 1.22 1 1.87.16 1.04.26 2.09.31 3.13.03.61.01 1.21-.07 1.81-.03.23-.07.46-.12.69a8.507 8.507 0 0 1-.66 1.73c-.22.43-.5.83-.83 1.19-.36.37-.76.7-1.2.97-.49.31-1 .59-1.53.84-.65.3-1.34.5-2.05.59-.7.1-1.4.17-2.1.22-1.35.1-2.7.28-4.04.54-1.65.34-3.25.89-4.76 1.63-.9.44-1.76.95-2.58 1.51-.83.57-1.62 1.19-2.37 1.87-.78.71-1.51 1.47-2.19 2.29-.75.89-1.44 1.83-2.06 2.82l-.304.473A48.276 48.276 0 0 0 53.5 102a48.275 48.275 0 0 0 30.01-10.409zm3.068-2.641a31.98 31.98 0 0 0-2.258-3.06c-.79-.95-1.65-1.85-2.57-2.68-.89-.8-1.82-1.54-2.8-2.21-.98-.67-2-1.27-3.06-1.79a24.09 24.09 0 0 0-5.76-1.98c-1.5-.29-3.01-.49-4.53-.6-.62-.04-1.24-.11-1.86-.2-.31-.03-.61-.12-.9-.24-.37-.18-.73-.38-1.08-.6-.15-.1-.29-.21-.42-.34-.07-.08-.13-.16-.17-.25-.11-.22-.21-.45-.29-.68-.02-.04-.03-.09-.04-.13-.02-.1-.04-.2-.05-.31-.05-.37-.06-.74-.05-1.11.04-.73.1-1.47.2-2.2.13-.26.27-.51.43-.74.19-.28.41-.55.65-.79.24-.24.5-.46.79-.65.32-.22.66-.41 1.02-.57.97-.45 1.89-.99 2.75-1.61 1.05-.73 2.04-1.56 2.95-2.46 1.01-.98 1.9-2.07 2.67-3.25.81-1.24 1.4-2.61 1.75-4.05.25-1.17.45-2.35.58-3.54.19-1.52.34-3.04.46-4.57.28-3.27.43-6.55.44-9.83.01-1.17-.03-2.34-.1-3.5-.04-.47-.09-.93-.15-1.39-.06-.42-.15-.83-.27-1.23-.35-1.06-.76-2.11-1.24-3.12-.65-1.38-1.45-2.69-2.38-3.9a17.854 17.854 0 0 0-3.96-3.75 17.52 17.52 0 0 0-5.87-2.57 37 37 0 0 0-2.481-.493 15.389 15.389 0 0 0-1.039-.207 24.433 24.433 0 0 0-4.085-.328 3.335 3.335 0 0 1-.2-.002 1.906 1.906 0 0 1-.2.002 24.433 24.433 0 0 0-4.085.328c-.348.058-.695.125-1.039.207a37 37 0 0 0-2.481.493c-2.1.49-4.09 1.36-5.87 2.57a17.854 17.854 0 0 0-3.96 3.75c-.93 1.21-1.73 2.52-2.38 3.9-.48 1.01-.89 2.06-1.24 3.12-.12.4-.21.81-.27 1.23-.06.46-.11.92-.15 1.39-.07 1.16-.11 2.33-.1 3.5.01 3.28.16 6.56.44 9.83.12 1.53.27 3.05.46 4.57.13 1.19.33 2.37.58 3.54.35 1.44.94 2.81 1.75 4.05.77 1.18 1.66 2.27 2.67 3.25.91.9 1.9 1.73 2.95 2.46.86.62 1.78 1.16 2.75 1.61.36.16.7.35 1.02.57.29.19.55.41.79.65.24.24.46.51.65.79.16.23.3.48.43.74.1.73.16 1.47.2 2.2.01.37 0 .74-.05 1.11-.01.11-.03.21-.05.31-.01.04-.02.09-.04.13-.08.23-.18.46-.29.68-.04.09-.1.17-.17.25-.13.13-.27.24-.42.34-.35.22-.71.42-1.08.6-.29.12-.59.21-.9.24-.62.09-1.24.16-1.86.2-1.52.11-3.03.31-4.53.6a24.09 24.09 0 0 0-5.76 1.98c-1.06.52-2.08 1.12-3.06 1.79-.98.67-1.91 1.41-2.8 2.21-.92.83-1.78 1.73-2.57 2.68-.86 1.03-1.65 2.11-2.37 3.23l-.008.013C11.014 80.269 5 67.582 5 53.5 5 26.732 26.732 5 53.5 5S102 26.732 102 53.5c0 13.987-5.933 26.599-15.422 35.45zM0 53.5C0 23.973 23.973 0 53.5 0S107 23.973 107 53.5 83.027 107 53.5 107 0 83.027 0 53.5z" fill-rule="evenodd"/></symbol><symbol viewBox="0 0 548.358 548.358" id="symbol_vk" xmlns="http://www.w3.org/2000/svg"><path d="M545.451 400.298c-.664-1.431-1.283-2.618-1.858-3.569-9.514-17.135-27.695-38.167-54.532-63.102l-.567-.571-.284-.28-.287-.287h-.288c-12.18-11.611-19.893-19.418-23.123-23.415-5.91-7.614-7.234-15.321-4.004-23.13 2.282-5.9 10.854-18.36 25.696-37.397 7.807-10.089 13.99-18.175 18.556-24.267 32.931-43.78 47.208-71.756 42.828-83.939l-1.701-2.847c-1.143-1.714-4.093-3.282-8.846-4.712-4.764-1.427-10.853-1.663-18.278-.712l-82.224.568c-1.332-.472-3.234-.428-5.712.144l-3.713.859-1.431.715-1.136.859c-.952.568-1.999 1.567-3.142 2.995-1.137 1.423-2.088 3.093-2.848 4.996-8.952 23.031-19.13 44.444-30.553 64.238-7.043 11.803-13.511 22.032-19.418 30.693-5.899 8.658-10.848 15.037-14.842 19.126-4 4.093-7.61 7.372-10.852 9.849-3.237 2.478-5.708 3.525-7.419 3.142-1.715-.383-3.33-.763-4.859-1.143-2.663-1.714-4.805-4.045-6.42-6.995-1.622-2.95-2.714-6.663-3.285-11.136-.568-4.476-.904-8.326-1-11.563-.089-3.233-.048-7.806.145-13.706.198-5.903.287-9.897.287-11.991 0-7.234.141-15.085.424-23.555.288-8.47.521-15.181.716-20.125.194-4.949.284-10.185.284-15.705s-.336-9.849-1-12.991a44.442 44.442 0 0 0-2.99-9.137c-1.335-2.95-3.289-5.232-5.853-6.852-2.569-1.618-5.763-2.902-9.564-3.856-10.089-2.283-22.936-3.518-38.547-3.71-35.401-.38-58.148 1.906-68.236 6.855-3.997 2.091-7.614 4.948-10.848 8.562-3.427 4.189-3.905 6.475-1.431 6.851 11.422 1.711 19.508 5.804 24.267 12.275l1.715 3.429c1.334 2.474 2.666 6.854 3.999 13.134 1.331 6.28 2.19 13.227 2.568 20.837.95 13.897.95 25.793 0 35.689-.953 9.9-1.853 17.607-2.712 23.127-.859 5.52-2.143 9.993-3.855 13.418-1.715 3.426-2.856 5.52-3.428 6.28-.571.76-1.047 1.239-1.425 1.427a21.387 21.387 0 0 1-7.71 1.431c-2.667 0-5.901-1.334-9.707-4-3.805-2.666-7.754-6.328-11.847-10.992-4.093-4.665-8.709-11.184-13.85-19.558-5.137-8.374-10.467-18.271-15.987-29.691l-4.567-8.282c-2.855-5.328-6.755-13.086-11.704-23.267-4.952-10.185-9.329-20.037-13.134-29.554-1.521-3.997-3.806-7.04-6.851-9.134l-1.429-.859c-.95-.76-2.475-1.567-4.567-2.427a30.301 30.301 0 0 0-6.567-1.854l-78.229.568c-7.994 0-13.418 1.811-16.274 5.428l-1.143 1.711c-.571.953-.859 2.475-.859 4.57 0 2.094.571 4.664 1.714 7.707 11.42 26.84 23.839 52.725 37.257 77.659 13.418 24.934 25.078 45.019 34.973 60.237 9.897 15.229 19.985 29.602 30.264 43.112 10.279 13.515 17.083 22.176 20.412 25.981 3.333 3.812 5.951 6.662 7.854 8.565l7.139 6.851c4.568 4.569 11.276 10.041 20.127 16.416 8.853 6.379 18.654 12.659 29.408 18.85 10.756 6.181 23.269 11.225 37.546 15.126 14.275 3.905 28.169 5.472 41.684 4.716h32.834c6.659-.575 11.704-2.669 15.133-6.283l1.136-1.431c.764-1.136 1.479-2.901 2.139-5.276.668-2.379 1-5 1-7.851-.195-8.183.428-15.558 1.852-22.124 1.423-6.564 3.045-11.513 4.859-14.846 1.813-3.33 3.859-6.14 6.136-8.418 2.282-2.283 3.908-3.666 4.862-4.142.948-.479 1.705-.804 2.276-.999 4.568-1.522 9.944-.048 16.136 4.429 6.187 4.473 11.99 9.996 17.418 16.56 5.425 6.57 11.943 13.941 19.555 22.124 7.617 8.186 14.277 14.271 19.985 18.274l5.708 3.426c3.812 2.286 8.761 4.38 14.853 6.283 6.081 1.902 11.409 2.378 15.984 1.427l73.087-1.14c7.229 0 12.854-1.197 16.844-3.572 3.998-2.379 6.373-5 7.139-7.851.764-2.854.805-6.092.145-9.712-.677-3.611-1.344-6.136-2.008-7.563z"/></symbol><symbol viewBox="0 0 334.877 334.877" id="symbol_wallet" xmlns="http://www.w3.org/2000/svg"><path d="M333.196 155.999h-16.067V82.09c0-17.719-14.415-32.134-32.134-32.134h-21.761L240.965 9.917a19.28 19.28 0 0 0-26.222-7.488l-85.464 47.526H33.815c-17.719 0-32.134 14.415-32.134 32.134v220.653c0 17.719 14.415 32.134 32.134 32.134h251.18c17.719 0 32.134-14.415 32.134-32.134V237.94h16.067v-81.941zm-48.201-93.19c9.897 0 17.982 7.519 19.068 17.14h-24.152l-9.525-17.14h14.609zm-63.999-49.146c3.014-1.69 7.07-.508 8.734 2.494l35.476 63.786H101.798l119.198-66.28zm83.279 289.079c0 10.63-8.651 19.281-19.281 19.281H33.815c-10.63 0-19.281-8.651-19.281-19.281V82.09c0-10.63 8.651-19.281 19.281-19.281h72.353L75.345 79.95H37.832a6.425 6.425 0 0 0-6.427 6.427 6.425 6.425 0 0 0 6.427 6.427h266.443v63.201h-46.999c-21.826 0-39.589 17.764-39.589 39.589v2.764c0 21.826 17.764 39.589 39.589 39.589h46.999v64.795zm16.067-77.655h-63.066c-14.743 0-26.736-11.992-26.736-26.736v-2.764c0-14.743 11.992-26.736 26.736-26.736h63.066v56.236zm-43.381-27.59c0 7.841-6.35 14.19-14.19 14.19-7.841 0-14.19-6.35-14.19-14.19s6.35-14.19 14.19-14.19c7.841-.001 14.19 6.355 14.19 14.19z"/></symbol><symbol viewBox="0 0 511.626 365.45" id="symbol_youtube" xmlns="http://www.w3.org/2000/svg"><path d="M511.339 139.899c-.186-10.277-1-23.271-2.423-38.97-1.431-15.708-3.478-29.746-6.14-42.115-3.046-13.893-9.661-25.6-19.842-35.117-10.181-9.519-22.031-15.037-35.549-16.562C405.127 2.38 341.27 0 255.812 0 170.353 0 106.495 2.38 64.24 7.135c-13.516 1.524-25.319 7.043-35.404 16.562C18.747 33.211 12.18 44.918 9.134 58.814c-2.852 12.373-4.996 26.41-6.423 42.115-1.425 15.699-2.235 28.688-2.424 38.97C.094 150.177 0 164.451 0 182.725c0 18.272.094 32.55.288 42.826.189 10.284.999 23.271 2.424 38.969 1.427 15.707 3.474 29.745 6.139 42.116 3.046 13.897 9.659 25.602 19.842 35.115 10.185 9.517 22.036 15.036 35.548 16.56 42.255 4.76 106.109 7.139 191.572 7.139 85.466 0 149.315-2.379 191.573-7.139 13.518-1.523 25.316-7.043 35.405-16.56 10.089-9.514 16.652-21.225 19.698-35.115 2.854-12.371 4.996-26.409 6.427-42.116 1.423-15.697 2.231-28.691 2.423-38.969.191-10.276.287-24.554.287-42.826 0-18.274-.095-32.548-.287-42.826zm-154.456 58.244l-146.177 91.359c-2.666 1.903-5.905 2.854-9.71 2.854-2.853 0-5.803-.764-8.848-2.286-6.28-3.422-9.419-8.754-9.419-15.985V91.366c0-7.229 3.14-12.561 9.419-15.986 6.473-3.431 12.657-3.239 18.558.571l146.178 91.36c5.708 3.23 8.562 8.372 8.562 15.415 0 7.04-2.855 12.184-8.563 15.417z"/></symbol><symbol viewBox="0 0 612 611.664" id="symol_clock" xmlns="http://www.w3.org/2000/svg"><path d="M538.724 440.685c-24.021 41.195-56.929 73.876-98.375 98.039-41.195 24.021-86.332 36.135-134.845 36.135-36.47 0-71.27-7.024-104.4-21.415-33.129-14.384-61.733-33.294-85.661-57.215-23.928-23.928-42.973-52.811-57.214-85.997-14.199-33.065-21.08-68.258-21.08-104.735 0-48.52 11.921-93.428 35.807-134.509 23.971-41.231 56.886-73.947 98.039-98.04 41.146-24.092 85.99-36.142 134.502-36.142 48.52 0 93.649 12.121 134.845 36.142 41.446 24.164 74.283 56.879 98.375 98.039 24.092 41.153 36.135 85.99 36.135 134.509 0 48.521-11.964 93.735-36.128 135.189zm48.848-253.972c-32.266-75.225-87.096-129.934-162.949-162.285C386.711 8.259 346.992 0 305.497 0c-41.488 0-80.914 8.181-118.784 24.428-75.225 32.265-130.298 86.939-162.621 162.285C7.895 224.461 0 264.008 0 305.496c0 41.496 7.895 81.371 24.092 119.127 32.323 75.346 87.403 130.348 162.621 162.621 37.877 16.247 77.295 24.42 118.784 24.42 41.489 0 81.214-8.259 119.12-24.42 75.853-32.352 130.683-87.403 162.956-162.621C603.819 386.746 612 346.992 612 305.496c0-41.488-8.174-80.907-24.428-118.783zM324.906 302.82V129.491c0-10.372-9.037-18.738-19.41-18.738-9.701 0-18.403 8.366-18.403 18.738v176.005c0 .336.671 1.678.671 2.678-.671 6.024 1.007 11.043 5.019 15.062l100.053 100.046c6.695 6.695 19.073 6.695 25.763 0 7.694-7.695 7.188-18.86 0-26.099l-93.693-94.363z" fill-rule="evenodd"/></symbol><symbol viewBox="0 0 318.571 354.965" id="symol_power-button" xmlns="http://www.w3.org/2000/svg"><path d="M159.286 176.365c-6.903 0-12.5-5.597-12.5-12.5V12.5c0-6.903 5.597-12.5 12.5-12.5s12.5 5.597 12.5 12.5v151.365c0 6.903-5.596 12.5-12.5 12.5zm0 178.6C71.455 354.965 0 283.509 0 195.68c0-35.124 11.209-68.431 32.417-96.32 20.515-26.979 49.637-47.061 82-56.545 6.625-1.949 13.569 1.855 15.511 8.479 1.941 6.625-1.855 13.569-8.48 15.511C64.66 83.449 24.999 136.443 24.999 195.68c0 74.045 60.24 134.285 134.286 134.285 74.045 0 134.286-60.24 134.286-134.285 0-59.237-39.661-112.231-96.449-128.875-6.625-1.941-10.421-8.886-8.479-15.511 1.94-6.625 8.885-10.426 15.511-8.479 32.364 9.484 61.484 29.566 82 56.545 21.208 27.89 32.417 61.196 32.417 96.32.002 87.829-71.454 159.285-159.285 159.285z" fill-rule="evenodd"/></symbol><symbol viewBox="0 0 512 480" id="symol_siren" xmlns="http://www.w3.org/2000/svg"><path d="M326 240c-5.52 0-10 4.48-10 10s4.48 10 10 10 10-4.48 10-10-4.48-10-10-10zm100 220H86v-30c0-5.514 4.486-10 10-10h320c5.514 0 10 4.486 10 10v30zm-67.761-91.787l-14.67-80.75c-.987-5.436-6.202-9.044-11.626-8.052-5.435.987-9.039 6.192-8.052 11.626l14.67 80.75c.994 5.476 6.242 9.036 11.626 8.052 5.435-.987 9.04-6.193 8.052-11.626zM502 240h-86c-5.522 0-10 4.478-10 10s4.478 10 10 10h86c5.522 0 10-4.478 10-10s-4.478-10-10-10zm-406 0H10c-5.523 0-10 4.478-10 10s4.477 10 10 10h86c5.523 0 10-4.478 10-10s-4.477-10-10-10zM432.781 73.219c-3.906-3.904-10.236-3.904-14.143 0l-56.57 56.57c-3.905 3.905-3.905 10.237 0 14.143 3.907 3.905 10.236 3.904 14.143 0l56.57-56.57c3.906-3.906 3.906-10.238 0-14.143zm-282.849 56.57l-56.57-56.57c-3.906-3.904-10.237-3.905-14.143 0-3.905 3.905-3.905 10.237 0 14.143l56.57 56.57c3.907 3.905 10.237 3.905 14.143 0 3.905-3.905 3.905-10.237 0-14.143zm10.257 91.267C164.508 197.267 185.196 180 209.38 180h93.24c24.181 0 44.873 17.268 49.195 41.025L383.738 400H128.262l31.927-178.944zM416 400h-11.946l-32.555-182.521C365.439 184.174 336.472 160 302.62 160h-93.24c-33.858 0-62.822 24.175-68.875 57.513L107.946 400H96c-16.542 0-30 13.458-30 30v40c0 5.522 4.477 10 10 10h360c5.522 0 10-4.478 10-10v-40c0-16.542-13.458-30-30-30zM256 0c-5.522 0-10 4.478-10 10v80c0 5.522 4.478 10 10 10s10-4.478 10-10V10c0-5.522-4.478-10-10-10z" fill-rule="evenodd"/></symbol></svg>